<svg width="258" height="55" viewBox="0 0 258 55" fill="none" xmlns="http://www.w3.org/2000/svg">
<g clip-path="url(#clip0_963_2323)">
<path d="M178.86 19.7418H188.871V20.2016H178.41V3.29834H188.534V3.75807H178.86V19.7418ZM178.75 11.3857H187.527V11.8455H178.75V11.3857Z" fill="white"/>
<path d="M197.246 20.2727C196.11 20.2727 195.035 20.0461 194.025 19.5961C193.015 19.146 192.247 18.573 191.723 17.8802L192.037 17.5661C192.529 18.1942 193.245 18.7252 194.18 19.159C195.116 19.5928 196.129 19.8097 197.223 19.8097C198.318 19.8097 199.292 19.6414 200.017 19.3015C200.743 18.9647 201.283 18.5083 201.633 17.9384C201.986 17.3686 202.161 16.7341 202.161 16.0445C202.161 15.2383 201.983 14.5908 201.623 14.102C201.264 13.6099 200.785 13.2246 200.186 12.9429C199.587 12.6613 198.936 12.4281 198.234 12.2436C197.531 12.0591 196.822 11.8681 196.113 11.677C195.401 11.4828 194.747 11.2303 194.148 10.9162C193.549 10.6022 193.07 10.1716 192.71 9.62444C192.351 9.07729 192.173 8.36179 192.173 7.47471C192.173 6.73331 192.354 6.04371 192.723 5.39944C193.089 4.75517 193.659 4.23393 194.429 3.82923C195.2 3.42778 196.197 3.22705 197.427 3.22705C198.266 3.22705 199.092 3.3695 199.907 3.65117C200.723 3.93284 201.416 4.30839 201.983 4.7746L201.737 5.15986C201.109 4.66128 200.412 4.2922 199.648 4.04939C198.884 3.80657 198.153 3.68678 197.447 3.68678C196.356 3.68678 195.449 3.85837 194.731 4.20479C194.012 4.55121 193.481 5.01094 193.138 5.58074C192.791 6.15379 192.62 6.79159 192.62 7.50061C192.62 8.32294 192.801 8.97693 193.157 9.46903C193.517 9.96114 193.996 10.3464 194.595 10.6281C195.194 10.9097 195.848 11.1428 196.56 11.3274C197.269 11.5119 197.978 11.7062 198.68 11.9069C199.383 12.1076 200.034 12.3666 200.633 12.6807C201.232 12.9947 201.711 13.4156 202.07 13.9498C202.429 14.4807 202.608 15.1801 202.608 16.051C202.608 16.7924 202.42 17.4852 202.047 18.1262C201.672 18.7705 201.089 19.2885 200.296 19.6835C199.503 20.0785 198.486 20.276 197.243 20.276L197.246 20.2727Z" fill="white"/>
<path d="M206.897 20.2011V3.29785H207.347V20.2011H206.897Z" fill="white"/>
<path d="M219.783 20.2725C218.618 20.2725 217.54 20.0589 216.552 19.6315C215.565 19.2041 214.704 18.6052 213.972 17.8314C213.237 17.0577 212.671 16.1576 212.266 15.1281C211.861 14.0985 211.66 12.9719 211.66 11.7481C211.66 10.5243 211.861 9.39763 212.266 8.36809C212.671 7.33855 213.237 6.43528 213.972 5.66474C214.704 4.89097 215.565 4.29202 216.552 3.86467C217.54 3.43731 218.618 3.22363 219.783 3.22363C220.845 3.22363 221.846 3.4017 222.781 3.75459C223.717 4.10748 224.52 4.64815 225.193 5.37336L224.925 5.71007C224.206 4.96867 223.416 4.44742 222.558 4.13986C221.697 3.83553 220.774 3.68013 219.787 3.68013C218.696 3.68013 217.679 3.88409 216.747 4.29526C215.811 4.70643 214.995 5.27624 214.299 6.01116C213.603 6.74284 213.065 7.59755 212.683 8.57205C212.301 9.54655 212.11 10.6052 212.11 11.7481C212.11 12.8909 212.301 13.9496 212.683 14.9241C213.065 15.8986 213.603 16.7501 214.299 17.485C214.995 18.2167 215.811 18.7897 216.747 19.2009C217.682 19.6121 218.696 19.816 219.787 19.816C220.774 19.816 221.706 19.6542 222.581 19.3336C223.455 19.0131 224.238 18.4789 224.928 17.7408L225.197 18.1034C224.523 18.8286 223.717 19.3725 222.785 19.7319C221.849 20.0945 220.852 20.2758 219.787 20.2758L219.783 20.2725ZM224.766 18.1001V11.9197H225.193V18.1001H224.766Z" fill="white"/>
<path d="M230.693 20.2016V3.29834H231.075L242.837 19.6447H242.591V3.29834H243.041V20.2016H242.659L230.897 3.8552H231.143V20.2016H230.693Z" fill="white"/>
<path d="M165.5 42.6763C164.46 42.6763 163.538 42.5048 162.732 42.1583C161.922 41.8119 161.288 41.3328 160.828 40.7209C160.365 40.109 160.135 39.3838 160.135 38.5485C160.135 37.9204 160.284 37.3247 160.579 36.7614C160.876 36.198 161.365 35.6217 162.048 35.0357C162.732 34.4497 163.667 33.8087 164.855 33.1159C165.959 32.4716 166.824 31.918 167.452 31.4485C168.077 30.9823 168.523 30.5323 168.786 30.0952C169.048 29.6614 169.181 29.179 169.181 28.6448C169.181 27.8711 168.922 27.2527 168.4 26.7865C167.882 26.3203 167.135 26.0872 166.163 26.0872C165.14 26.0872 164.347 26.3462 163.777 26.8609C163.207 27.3757 162.926 28.0524 162.926 28.8909C162.926 29.2762 162.984 29.6485 163.097 30.0014C163.214 30.3543 163.428 30.746 163.742 31.1734C164.056 31.6007 164.493 32.1187 165.053 32.7306L174.251 42.5339L173.878 42.8479L164.606 32.9475C164.03 32.3194 163.58 31.7852 163.259 31.3417C162.939 30.8982 162.719 30.4838 162.605 30.0985C162.489 29.7132 162.434 29.3085 162.434 28.8909C162.434 28.2304 162.586 27.6606 162.89 27.175C163.194 26.6926 163.628 26.3138 164.188 26.0386C164.749 25.7667 165.409 25.6274 166.167 25.6274C166.876 25.6274 167.491 25.7472 168.009 25.99C168.527 26.2329 168.931 26.5793 169.22 27.0293C169.508 27.4793 169.653 28.02 169.653 28.6481C169.653 29.2114 169.517 29.7326 169.245 30.2053C168.974 30.6812 168.511 31.1701 167.86 31.6784C167.209 32.1867 166.315 32.7759 165.176 33.4526C164.004 34.1454 163.088 34.7638 162.421 35.3109C161.754 35.8581 161.288 36.3858 161.025 36.8909C160.763 37.3991 160.63 37.9495 160.63 38.5452C160.63 39.2866 160.838 39.9374 161.249 40.5007C161.66 41.064 162.233 41.4979 162.968 41.8054C163.7 42.113 164.545 42.2652 165.503 42.2652C166.74 42.2652 167.831 42.0224 168.779 41.54C169.728 41.0576 170.518 40.3259 171.152 39.3417C171.787 38.3607 172.253 37.111 172.551 35.5991L172.972 35.6962C172.658 37.2891 172.162 38.6035 171.489 39.633C170.812 40.6626 169.971 41.4267 168.967 41.9285C167.96 42.427 166.808 42.6763 165.506 42.6763H165.5Z" fill="white"/>
<path d="M178.718 42.6054V25.7021H184.957C186.579 25.7021 187.864 26.0615 188.819 26.777C189.771 27.4925 190.25 28.5609 190.25 29.9757C190.25 30.9081 190.04 31.6851 189.619 32.3067C189.198 32.9283 188.612 33.3913 187.861 33.6956C187.11 34.0032 186.249 34.1554 185.271 34.1554L185.653 33.8413C186.87 33.8413 187.877 34.0064 188.68 34.3367C189.483 34.6669 190.089 35.1525 190.493 35.7968C190.898 36.4411 191.102 37.2375 191.102 38.1861C191.102 39.6042 190.632 40.6952 189.694 41.4593C188.755 42.2233 187.324 42.6054 185.404 42.6054H178.715H178.718ZM179.168 42.1456H185.495C187.175 42.1456 188.457 41.8284 189.334 41.1906C190.212 40.5528 190.652 39.5524 190.652 38.1829C190.652 36.8134 190.212 35.8162 189.334 35.1881C188.457 34.5601 187.175 34.246 185.495 34.246H179.055V33.7863H185.044C186.547 33.7863 187.712 33.4658 188.544 32.8215C189.376 32.1772 189.794 31.2286 189.794 29.9725C189.794 28.7163 189.376 27.7677 188.544 27.1234C187.712 26.4792 186.543 26.1586 185.044 26.1586H179.168V42.1424V42.1456Z" fill="white"/>
<path d="M230.069 42.6054V25.7021H236.375C238.137 25.7021 239.674 26.068 240.992 26.7997C242.31 27.5314 243.333 28.535 244.061 29.8041C244.79 31.0765 245.156 32.5237 245.156 34.1521C245.156 35.7806 244.79 37.2278 244.061 38.4969C243.333 39.7693 242.307 40.7697 240.992 41.5046C239.674 42.2363 238.137 42.6021 236.375 42.6021H230.069V42.6054ZM230.545 42.1456H236.327C238.023 42.1456 239.5 41.7992 240.752 41.1064C242.005 40.4135 242.973 39.4682 243.657 38.2703C244.34 37.0724 244.68 35.6997 244.68 34.1521C244.68 32.6046 244.34 31.2351 243.657 30.034C242.973 28.8361 242.005 27.8907 240.752 27.1979C239.5 26.5051 238.023 26.1586 236.327 26.1586H230.545V42.1424V42.1456Z" fill="white"/>
<path d="M201.613 42.6766C199.602 42.6766 198.016 42.0809 196.85 40.8895C195.685 39.698 195.102 37.9109 195.102 35.5281V25.7021H195.584V35.5054C195.584 37.7588 196.112 39.4423 197.164 40.5528C198.216 41.6632 199.702 42.2201 201.616 42.2201C203.529 42.2201 205.012 41.6665 206.067 40.5528C207.12 39.4423 207.647 37.7588 207.647 35.5054V25.7021H208.13V35.5281C208.13 37.9109 207.547 39.698 206.381 40.8895C205.216 42.0809 203.626 42.6766 201.619 42.6766H201.613Z" fill="white"/>
<path d="M213.049 42.7572V25.854H213.499V42.7572H213.049Z" fill="white"/>
<path d="M218.654 42.7572V25.854H219.062V42.2975H227.593V42.7572H218.651H218.654Z" fill="white"/>
<path d="M159.963 20.2724V3.36914H166.364C168.151 3.36914 169.711 3.73498 171.048 4.46667C172.386 5.19835 173.425 6.20199 174.166 7.47435C174.908 8.7467 175.277 10.1939 175.277 11.8191C175.277 13.4444 174.908 14.8948 174.166 16.1639C173.425 17.4363 172.386 18.4367 171.048 19.1716C169.711 19.9033 168.151 20.2691 166.364 20.2691H159.963V20.2724ZM160.446 19.8126H166.315C168.038 19.8126 169.537 19.4662 170.809 18.7734C172.081 18.0805 173.062 17.1352 173.755 15.9373C174.448 14.7394 174.794 13.3667 174.794 11.8191C174.794 10.2716 174.448 8.9021 173.755 7.70097C173.062 6.50308 172.081 5.55772 170.809 4.86489C169.537 4.17205 168.041 3.82563 166.315 3.82563H160.446V19.8094V19.8126Z" fill="white"/>
<path d="M159.283 51.6086H164.781C164.781 51.6086 164.881 49.6596 163.466 49.6434C162.051 49.6272 160.569 49.6434 160.569 49.6434C160.569 49.6434 159.296 49.6726 159.283 51.1003L159.27 52.5281C159.27 52.5281 159.215 53.8134 160.161 53.8004C161.106 53.7875 163.256 53.8004 163.256 53.8004C163.256 53.8004 164.732 53.8717 164.719 52.7191" stroke="white" stroke-width="0.634558" stroke-linecap="round" stroke-linejoin="round"/>
<path d="M166.703 49.5171V50.7959V54.2018" stroke="white" stroke-width="0.634558" stroke-miterlimit="10"/>
<path d="M166.703 50.7956C166.703 50.7956 167.037 49.7564 168.296 49.7564H170.802C170.802 49.7564 171.974 49.5621 171.987 50.7212C172 51.8802 171.987 54.2015 171.987 54.2015" stroke="white" stroke-width="0.634558" stroke-linejoin="round"/>
<path d="M178.527 51.7349H175.008C174.577 51.7349 174.221 51.382 174.221 50.9482V50.5855C174.221 50.155 174.574 49.7988 175.008 49.7988H178.527C178.957 49.7988 179.313 50.1517 179.313 50.5855V50.8122" stroke="white" stroke-width="0.634558" stroke-linejoin="round"/>
<path d="M175.008 51.7349H178.527C178.957 51.7349 179.313 52.0878 179.313 52.5216V53.1561C179.313 53.5867 178.961 53.9429 178.527 53.9429H175.008C174.577 53.9429 174.221 53.59 174.221 53.1561V52.6867" stroke="white" stroke-width="0.634558" stroke-linejoin="round"/>
<path d="M183.072 49.7437H185.371C186.232 49.7437 186.928 50.443 186.928 51.3009V51.6441H181.512V51.3009C181.512 50.4397 182.211 49.7437 183.069 49.7437H183.072Z" stroke="white" stroke-width="0.634558" stroke-linecap="round" stroke-linejoin="round"/>
<path d="M186.932 51.644H181.516V52.3595C181.516 53.1819 182.183 53.852 183.008 53.852H185.443C186.133 53.852 186.712 53.3858 186.884 52.748" stroke="white" stroke-width="0.634558" stroke-linejoin="round"/>
<path d="M212.097 49.8345H214.409C215.267 49.8345 215.96 50.5305 215.96 51.3853V51.7349H210.543V51.3853C210.543 50.5273 211.239 49.8345 212.094 49.8345H212.097Z" stroke="white" stroke-width="0.634558" stroke-linecap="round" stroke-linejoin="round"/>
<path d="M215.963 51.7349H210.547V52.4504C210.547 53.2727 211.214 53.9429 212.039 53.9429H214.474C215.468 53.972 215.925 53.4281 215.921 52.7417" stroke="white" stroke-width="0.634558" stroke-linejoin="round"/>
<path d="M188.981 54.1857V51.7446C188.981 50.5532 189.945 49.5884 191.137 49.5884H191.703C192.895 49.5884 193.86 50.5532 193.86 51.7446V54.1857" stroke="white" stroke-width="0.634558" stroke-linecap="round" stroke-linejoin="round"/>
<path d="M193.861 54.1857V51.6604C193.861 50.5176 194.791 49.5884 195.933 49.5884H196.668C197.811 49.5884 198.74 50.5176 198.74 51.6604V54.1857" stroke="white" stroke-width="0.634558" stroke-linecap="round" stroke-linejoin="round"/>
<path d="M188.981 49.3389V54.1855" stroke="white" stroke-width="0.634558" stroke-miterlimit="10"/>
<path d="M204.427 49.7827H202.53C201.556 49.7827 200.766 50.5727 200.766 51.5472V52.3274C200.766 53.3019 201.556 54.0919 202.53 54.0919H204.427C205.402 54.0919 206.192 53.3019 206.192 52.3274V51.5472C206.192 50.5727 205.402 49.7827 204.427 49.7827Z" stroke="white" stroke-width="0.634558" stroke-linecap="round" stroke-linejoin="round"/>
<path d="M200.668 47.3838V54.2765" stroke="white" stroke-width="0.634558" stroke-miterlimit="10"/>
<path d="M208.344 47.293V54.1857" stroke="white" stroke-width="0.634558" stroke-miterlimit="10"/>
<path d="M123.683 41.0187C123.683 47.4582 118.467 52.6739 112.028 52.6739V29.3604C118.467 29.3604 123.683 34.5825 123.683 41.0155V41.0187Z" fill="white"/>
<path d="M140.21 41.3586C140.21 47.7981 134.994 53.0137 128.555 53.0137V29.7002C134.994 29.7002 140.21 34.9224 140.21 41.3554V41.3586Z" fill="white"/>
<path d="M140.21 15.0243C140.21 21.4638 134.994 26.6794 128.555 26.6794V3.36914C134.994 3.36914 140.21 8.5913 140.21 15.0243Z" fill="white"/>
</g>
<path d="M86.3284 2.92383V54.3211" stroke="white" stroke-width="0.35855" stroke-miterlimit="10"/>
<g clip-path="url(#clip1_963_2323)">
<path d="M13.684 5.58545C13.7851 6.61565 14.0291 8.11476 14.6706 9.80735C15.1901 11.174 16.9942 15.931 22.0825 18.408C27.2317 20.9147 32.1492 19.3389 33.1741 18.985C28.4711 22.1541 22.6961 22.6927 18.1726 20.268C14.5992 18.3505 12.9432 15.1972 12.3365 13.8549C11.9966 12.6417 11.3935 9.78295 12.7845 6.99566C13.053 6.45702 13.3633 5.98812 13.6823 5.58545H13.684Z" fill="white"/>
<path d="M14.9924 9.77239C15.6235 11.139 17.0528 13.6282 19.8122 15.7601C21.8116 17.3045 23.3717 18.0436 24.6163 18.4149C25.209 17.6009 27.3269 14.7438 31.0765 13.8304C33.4262 13.2587 35.6627 13.5254 36.7103 13.7956C36.8027 13.0216 37.3099 9.61377 34.5279 6.65216C32.3943 4.38084 30.0393 3.1955 29.0091 2.91659C24.1579 1.59878 20.4729 3.9189 19.6031 4.4924C17.1295 6.12399 15.5555 8.67944 14.9942 9.77239H14.9924Z" fill="white"/>
<path d="M24.3018 1.90364C24.3279 2.1564 27.3087 1.40336 30.8874 2.89375C31.7834 3.26678 33.8193 4.14359 35.4771 6.25628C35.9373 6.84198 38.0291 9.50551 37.7118 12.9622C37.2952 17.5257 33.0297 20.1335 31.6544 20.8447C28.4156 22.5181 23.5278 23.3426 19.4175 21.779C15.5703 20.3165 13.0236 16.513 13.0532 16.7587C13.0846 17.0167 15.2008 21.7023 20.0084 24.962C21.4064 25.9103 24.9136 28.5076 30.1012 28.5651C31.3911 28.579 38.287 28.4814 43.065 23.1369C43.886 22.2183 47.9441 17.6809 46.9278 11.5764C45.7372 4.419 38.6287 1.47657 37.6264 1.08088C30.7985 -1.61403 24.2634 1.52364 24.3035 1.9019L24.3018 1.90364Z" fill="white"/>
<path d="M12.2995 16.3677C13.1362 18.3461 14.888 22.0521 18.465 24.9335C20.0443 26.206 21.9147 27.0723 23.2395 27.6005C23.4364 28.4616 23.8496 30.6719 26.018 32.4866C27.2661 33.5307 28.5979 34.1617 29.4119 34.3901C28.3225 34.4912 20.8914 35.0298 15.8851 29.8718C13.2826 27.1909 12.4267 23.9399 12.2768 23.3995C11.4471 20.41 12.0432 17.6663 12.3012 16.3694L12.2995 16.3677Z" fill="white"/>
<path d="M12.4885 26.4678C13.7593 28.4131 16.8237 32.4607 22.1752 34.3241C25.0671 35.3317 27.6121 35.3491 29.2245 35.3474C31.325 35.3439 34.5934 35.3142 38.3725 33.5171C41.5607 32.0005 43.1766 30.2574 44.8309 28.5648C44.9477 30.0935 43.7937 34.5351 39.2511 37.7337C35.1738 40.603 30.8439 40.3607 29.0728 40.2439C21.7673 39.7662 16.9283 34.7355 16.109 33.7855C13.7541 31.0523 12.9435 28.1168 12.4885 26.4678Z" fill="white"/>
</g>
<path fill-rule="evenodd" clip-rule="evenodd" d="M5.59204 51.168C5.58883 50.6777 5.45745 50.3316 5.19788 50.1361C5.02803 50.0047 4.79089 49.915 4.48325 49.8637C4.19483 49.8156 3.77823 49.79 3.23665 49.7868V49.085C4.06344 49.085 4.66271 49.133 5.03765 49.2228C5.4222 49.3125 5.73304 49.4919 5.96377 49.7547C6.15285 49.9758 6.28744 50.229 6.35794 50.5206C6.42845 50.8122 6.4669 51.2545 6.47331 51.8473H3.23665V51.168H5.59204ZM3.23665 54.254V53.5522C3.34881 53.5522 3.46739 53.5522 3.59237 53.5522C4.16279 53.5522 4.58258 53.5266 4.84857 53.4721C5.11134 53.4208 5.31004 53.3215 5.44463 53.1805C5.54397 53.0715 5.60486 52.8888 5.63049 52.6357H6.46369C6.45087 53.2381 6.23617 53.6579 5.82598 53.8983C5.41258 54.1354 4.70116 54.2572 3.67889 54.2572C3.52506 54.2572 3.37765 54.2572 3.23665 54.254ZM3.23665 49.79C3.2046 49.79 3.16936 49.79 3.13411 49.79C2.61817 49.79 2.224 49.8124 1.95161 49.8637C1.68242 49.9086 1.46771 49.9919 1.31709 50.1136C1.06713 50.3091 0.922928 50.6616 0.881268 51.1712H3.23665V51.8505H0.855625C0.878058 52.4786 0.999834 52.9081 1.22736 53.142C1.38118 53.299 1.62473 53.408 1.95801 53.4689C2.23681 53.5169 2.66302 53.5458 3.23665 53.5522V54.254C2.60854 54.2444 2.11504 54.2123 1.75612 54.1579C1.31709 54.0938 0.987015 53.9816 0.765897 53.8278C0.256364 53.4657 0 52.7542 0 51.6839C0 50.9372 0.108953 50.3764 0.326867 50.0015C0.531962 49.6458 0.826782 49.4022 1.21454 49.2772C1.6023 49.1523 2.24963 49.0882 3.15974 49.0882H3.23986V49.79H3.23665Z" fill="white"/>
<path fill-rule="evenodd" clip-rule="evenodd" d="M7.77344 49.1491H8.57139V49.9085H8.62907C8.80212 49.5849 9.05849 49.367 9.40779 49.2548C9.75709 49.1426 10.3467 49.085 11.1767 49.085C11.901 49.085 12.4361 49.1266 12.7855 49.2035C13.1348 49.2837 13.4071 49.4279 13.6058 49.6394C13.7629 49.8028 13.8718 50.0111 13.9359 50.2643C13.9968 50.511 14.0288 50.8731 14.0288 51.3442V54.1931H13.2341V51.6839C13.2341 51.2353 13.2149 50.9116 13.1764 50.7161C13.1412 50.5206 13.0642 50.354 12.9489 50.2194C12.8143 50.0624 12.6092 49.9534 12.3304 49.8861C12.0516 49.8188 11.6382 49.7868 11.0838 49.7868C10.4685 49.7868 9.98783 49.8316 9.64173 49.9214C9.29884 50.0111 9.03926 50.1585 8.86621 50.3636C8.74764 50.5142 8.66753 50.6809 8.63228 50.8667C8.59383 51.0494 8.57459 51.3827 8.57459 51.857V54.1899H7.77665V49.1458L7.77344 49.1491Z" fill="white"/>
<path fill-rule="evenodd" clip-rule="evenodd" d="M15.2923 52.4334H16.1447V52.5744C16.1447 52.8467 16.1735 53.0422 16.2312 53.1576C16.2889 53.2762 16.4043 53.3659 16.5805 53.43C16.8113 53.5133 17.4714 53.5518 18.5674 53.5518C19.2532 53.5518 19.7274 53.5357 19.9934 53.5069C20.2626 53.4781 20.4549 53.4172 20.5703 53.3274C20.7305 53.2089 20.8106 53.023 20.8106 52.7698C20.8106 52.4654 20.7145 52.2571 20.5222 52.1449C20.3299 52.036 19.9838 51.9815 19.4743 51.9847C19.3141 51.9879 18.5482 51.9783 17.1734 51.9591C16.8145 51.9527 16.5292 51.9238 16.3145 51.8725C16.0998 51.8245 15.9236 51.7444 15.7826 51.6322C15.5134 51.4239 15.3788 51.0714 15.3788 50.5747C15.3788 50.0491 15.5486 49.6678 15.8819 49.4306C16.0614 49.3089 16.3498 49.2191 16.7536 49.1614C17.1574 49.107 17.7406 49.0781 18.4969 49.0781C19.3429 49.0781 19.9678 49.123 20.3684 49.2159C20.7722 49.3089 21.067 49.4723 21.2528 49.7062C21.3458 49.8184 21.4035 49.937 21.4291 50.0651C21.4579 50.1901 21.4708 50.4016 21.4708 50.6997H20.6311C20.6279 50.392 20.5767 50.1901 20.4773 50.094C20.3684 49.9818 20.1569 49.9017 19.8396 49.8536C19.5223 49.8024 19.0673 49.7767 18.468 49.7767C17.3753 49.7767 16.7151 49.8536 16.4812 50.0075C16.3113 50.1196 16.2248 50.3119 16.2248 50.5811C16.2248 50.8503 16.3242 51.0425 16.5228 51.1291C16.7215 51.2188 17.1221 51.2573 17.7246 51.2476C18.3206 51.2348 19.0929 51.2476 20.0383 51.2893C20.6119 51.3117 21.0285 51.4367 21.2817 51.6674C21.5316 51.8982 21.6598 52.2635 21.6598 52.7634C21.6598 53.0647 21.615 53.3082 21.5284 53.4973C21.4387 53.6832 21.2977 53.837 21.0958 53.9587C20.9228 54.0645 20.6408 54.1414 20.2466 54.1863C19.8556 54.2311 19.2852 54.2536 18.5417 54.2536C17.7085 54.2536 17.0901 54.2247 16.6895 54.1767C16.2857 54.1254 15.9909 54.0389 15.805 53.9107C15.6127 53.7825 15.4781 53.6287 15.4044 53.4492C15.3275 53.2698 15.2891 53.0166 15.2891 52.6929C15.2891 52.6513 15.2891 52.5615 15.2955 52.4301L15.2923 52.4334Z" fill="white"/>
<path fill-rule="evenodd" clip-rule="evenodd" d="M28.4338 51.168C28.4306 50.6777 28.2992 50.3316 28.0397 50.1361C27.8698 50.0047 27.6327 49.915 27.325 49.8637C27.0366 49.8156 26.62 49.79 26.0784 49.7868V49.085C26.9052 49.085 27.5045 49.133 27.8794 49.2228C28.2672 49.3125 28.5748 49.4919 28.8056 49.7547C28.9978 49.9758 29.1292 50.229 29.1997 50.5206C29.2702 50.8122 29.3087 51.2545 29.3151 51.8473H26.0784V51.168H28.4338ZM26.0784 54.254V53.5522C26.1906 53.5522 26.3092 53.5522 26.4342 53.5522C27.0046 53.5522 27.4212 53.5266 27.6872 53.4721C27.9531 53.4208 28.1518 53.3215 28.2832 53.1805C28.3826 53.0715 28.4467 52.8888 28.4691 52.6357H29.3055C29.2895 53.2381 29.078 53.6579 28.6678 53.8983C28.2576 54.1354 27.5397 54.2572 26.5207 54.2572C26.3669 54.2572 26.2195 54.2572 26.0817 54.254H26.0784ZM26.0784 49.79C26.0464 49.79 26.0112 49.79 25.9759 49.79C25.46 49.79 25.0658 49.8124 24.7934 49.8637C24.5242 49.9086 24.3095 49.9919 24.1589 50.1136C23.9089 50.3091 23.7647 50.6616 23.7231 51.1712H26.0784V51.8505H23.6974C23.7199 52.4786 23.8416 52.9081 24.0692 53.142C24.2198 53.299 24.4665 53.408 24.7998 53.4689C25.0818 53.5169 25.508 53.5458 26.0784 53.5522V54.254C25.4503 54.2444 24.9568 54.2123 24.5979 54.1579C24.1621 54.0938 23.8288 53.9816 23.6077 53.8278C23.0982 53.4657 22.8418 52.7542 22.8418 51.6839C22.8418 50.9372 22.9507 50.3764 23.1655 50.0015C23.3706 49.6458 23.6686 49.4022 24.0563 49.2772C24.4441 49.1523 25.0914 49.0882 25.9983 49.0882H26.0784V49.79Z" fill="white"/>
<path fill-rule="evenodd" clip-rule="evenodd" d="M30.6167 49.1491H31.4211V49.8124C31.6742 49.508 31.9242 49.3093 32.1806 49.2228C32.4369 49.1298 32.8728 49.085 33.4881 49.085C34.3116 49.085 34.9045 49.1459 35.2666 49.2676C35.6255 49.3862 35.9043 49.6201 36.103 49.963C36.2664 49.633 36.5196 49.4054 36.8561 49.2772C37.199 49.1491 37.7278 49.085 38.452 49.085C39.1762 49.085 39.6537 49.1298 39.9966 49.2196C40.3363 49.3093 40.6151 49.4663 40.8266 49.697C40.9901 49.8797 41.0958 50.0848 41.1471 50.3155C41.1983 50.5431 41.2208 50.9532 41.2208 51.5397V54.1931H40.4228V51.357C40.4228 50.7353 40.3299 50.338 40.1472 50.1553C39.8973 49.9117 39.3301 49.79 38.4456 49.79C37.9361 49.79 37.5515 49.8252 37.2855 49.8925C37.0195 49.9598 36.8176 50.072 36.6798 50.2322C36.5421 50.3957 36.4459 50.6104 36.3978 50.886C36.3498 51.1551 36.3241 51.5974 36.3241 52.2095V54.1995H35.5262V51.3634C35.5262 51.0045 35.507 50.7417 35.4685 50.5687C35.4301 50.3989 35.3563 50.2675 35.2506 50.1649C34.991 49.9182 34.4238 49.7932 33.5393 49.7932C33.0298 49.7932 32.6356 49.8284 32.36 49.8957C32.0876 49.9662 31.8761 50.0816 31.7255 50.2482C31.5973 50.3924 31.514 50.5911 31.4724 50.8411C31.4275 51.0911 31.4083 51.5461 31.4083 52.2063V54.1963H30.6135V49.1523L30.6167 49.1491Z" fill="white"/>
<path fill-rule="evenodd" clip-rule="evenodd" d="M45.8904 53.5585C45.9801 53.5585 46.0699 53.5585 46.166 53.5585C46.6307 53.5585 46.9864 53.5361 47.2363 53.4912C47.4831 53.4463 47.6946 53.363 47.8612 53.2477C48.0311 53.1323 48.1529 52.9496 48.2298 52.7061C48.3035 52.4625 48.3451 52.1228 48.3451 51.6902C48.3451 51.1134 48.2778 50.6968 48.1432 50.4436C48.0022 50.1776 47.7747 50.0014 47.4671 49.9181C47.1755 49.8379 46.6499 49.7963 45.8872 49.7899V49.0881C46.6467 49.0881 47.1915 49.1169 47.5248 49.1682C47.8773 49.2227 48.1657 49.3284 48.3868 49.4854C48.6656 49.6873 48.8675 49.9405 48.9861 50.2449C49.1239 50.5942 49.1944 51.0942 49.1944 51.7447C49.1944 52.4593 49.0854 52.9977 48.8739 53.3534C48.5951 53.8213 48.0888 54.1033 47.3581 54.1994C47.0569 54.2379 46.5666 54.2571 45.8872 54.2571V53.5585H45.8904ZM45.7686 49.7899C45.2431 49.7899 44.8425 49.8123 44.5701 49.854C44.2977 49.8988 44.0894 49.9725 43.9388 50.0815C43.7561 50.2065 43.6247 50.3955 43.5478 50.6391C43.4709 50.8826 43.4325 51.232 43.4325 51.6838C43.4325 52.2831 43.4966 52.6965 43.6215 52.924C43.7722 53.1804 44.0093 53.3534 44.3362 53.4335C44.6278 53.5072 45.1437 53.5489 45.884 53.5553V54.2539C45.0796 54.2539 44.5252 54.209 44.224 54.1193C43.9196 54.0296 43.676 53.8405 43.4901 53.5457H43.4453V54.1898H42.6602V46.9346H43.4549V49.7514H43.503C43.6856 49.4822 43.926 49.306 44.224 49.2163C44.522 49.1265 45.0316 49.0817 45.7494 49.0817C45.7943 49.0817 45.8423 49.0817 45.8872 49.0817V49.7835C45.8455 49.7835 45.8071 49.7835 45.7654 49.7835L45.7686 49.7899Z" fill="white"/>
<path d="M51.3631 46.9375H50.5684V54.1927H51.3631V46.9375Z" fill="white"/>
<path fill-rule="evenodd" clip-rule="evenodd" d="M58.3264 51.168C58.3232 50.6777 58.1918 50.3316 57.9322 50.1361C57.7624 50.0047 57.5221 49.915 57.2176 49.8637C56.9292 49.8156 56.5126 49.79 55.971 49.7868V49.085C56.7978 49.085 57.3971 49.133 57.772 49.2228C58.1566 49.3125 58.4674 49.4919 58.6981 49.7547C58.8872 49.9758 59.0218 50.229 59.0923 50.5206C59.1628 50.8122 59.2013 51.2545 59.2077 51.8473H55.971V51.168H58.3264ZM55.971 54.254V53.5522C56.0832 53.5522 56.2017 53.5522 56.3267 53.5522C56.9004 53.5522 57.317 53.5266 57.583 53.4721C57.8489 53.4208 58.0444 53.3215 58.179 53.1805C58.2751 53.0715 58.3392 52.8888 58.3649 52.6357H59.1981C59.1852 53.2381 58.9737 53.6579 58.5604 53.8983C58.1502 54.1354 57.4355 54.2572 56.4133 54.2572C56.2594 54.2572 56.112 54.2572 55.971 54.254ZM55.971 49.79C55.939 49.79 55.9037 49.79 55.8685 49.79C55.3525 49.79 54.9584 49.8124 54.686 49.8637C54.4168 49.9086 54.2021 49.9919 54.0515 50.1136C53.8015 50.3091 53.6573 50.6616 53.6156 51.1712H55.971V51.8505H53.59C53.6124 52.4786 53.7342 52.9081 53.9617 53.142C54.1156 53.299 54.3591 53.408 54.6924 53.4689C54.9712 53.5169 55.3974 53.5458 55.971 53.5522V54.254C55.3429 54.2444 54.8494 54.2123 54.4905 54.1579C54.0547 54.0938 53.7246 53.9816 53.5003 53.8278C52.9907 53.4657 52.7344 52.7542 52.7344 51.6839C52.7344 50.9372 52.8433 50.3764 53.058 50.0015C53.2631 49.6458 53.5612 49.4022 53.9457 49.2772C54.3335 49.1523 54.9808 49.0882 55.8877 49.0882H55.9678V49.79H55.971Z" fill="white"/>
<defs>
<clipPath id="clip0_963_2323">
<rect width="145.728" height="53.4259" fill="white" transform="translate(112.028 1.07715)"/>
</clipPath>
<clipPath id="clip1_963_2323">
<rect width="35.2395" height="40.3051" fill="white" transform="translate(11.8499)"/>
</clipPath>
</defs>
</svg>
