<svg width="258" height="55" viewBox="0 0 258 55" fill="none" xmlns="http://www.w3.org/2000/svg">
<g clip-path="url(#clip0_503_746)">
<path d="M178.86 19.7418H188.871V20.2016H178.41V3.29834H188.534V3.75807H178.86V19.7418ZM178.75 11.3857H187.527V11.8455H178.75V11.3857Z" fill="black"/>
<path d="M197.246 20.2727C196.11 20.2727 195.035 20.0461 194.025 19.5961C193.015 19.146 192.247 18.573 191.723 17.8802L192.037 17.5661C192.529 18.1942 193.244 18.7252 194.18 19.159C195.116 19.5928 196.129 19.8097 197.223 19.8097C198.318 19.8097 199.292 19.6414 200.017 19.3015C200.743 18.9647 201.283 18.5083 201.633 17.9384C201.986 17.3686 202.161 16.7341 202.161 16.0445C202.161 15.2383 201.983 14.5908 201.623 14.102C201.264 13.6099 200.785 13.2246 200.186 12.9429C199.587 12.6613 198.936 12.4281 198.233 12.2436C197.531 12.0591 196.822 11.8681 196.113 11.677C195.401 11.4828 194.747 11.2303 194.148 10.9162C193.549 10.6022 193.07 10.1716 192.71 9.62444C192.351 9.07729 192.173 8.36179 192.173 7.47471C192.173 6.73331 192.354 6.04371 192.723 5.39944C193.089 4.75517 193.659 4.23393 194.429 3.82923C195.2 3.42778 196.197 3.22705 197.427 3.22705C198.266 3.22705 199.091 3.3695 199.907 3.65117C200.723 3.93284 201.416 4.30839 201.983 4.7746L201.736 5.15986C201.108 4.66128 200.412 4.2922 199.648 4.04939C198.884 3.80657 198.153 3.68678 197.447 3.68678C196.356 3.68678 195.449 3.85837 194.73 4.20479C194.012 4.55121 193.481 5.01094 193.138 5.58074C192.791 6.15379 192.62 6.79159 192.62 7.50061C192.62 8.32294 192.801 8.97693 193.157 9.46903C193.516 9.96114 193.996 10.3464 194.594 10.6281C195.193 10.9097 195.847 11.1428 196.56 11.3274C197.269 11.5119 197.978 11.7062 198.68 11.9069C199.383 12.1076 200.034 12.3666 200.632 12.6807C201.231 12.9947 201.711 13.4156 202.07 13.9498C202.429 14.4807 202.607 15.1801 202.607 16.051C202.607 16.7924 202.42 17.4852 202.047 18.1262C201.672 18.7705 201.089 19.2885 200.296 19.6835C199.503 20.0785 198.486 20.276 197.243 20.276L197.246 20.2727Z" fill="black"/>
<path d="M206.897 20.2011V3.29785H207.347V20.2011H206.897Z" fill="black"/>
<path d="M219.783 20.2725C218.618 20.2725 217.54 20.0589 216.552 19.6315C215.565 19.2041 214.704 18.6052 213.972 17.8314C213.237 17.0577 212.67 16.1576 212.266 15.1281C211.861 14.0985 211.66 12.9719 211.66 11.7481C211.66 10.5243 211.861 9.39763 212.266 8.36809C212.67 7.33855 213.237 6.43528 213.972 5.66474C214.704 4.89097 215.565 4.29202 216.552 3.86467C217.54 3.43731 218.618 3.22363 219.783 3.22363C220.845 3.22363 221.846 3.4017 222.781 3.75459C223.717 4.10748 224.52 4.64815 225.193 5.37336L224.924 5.71007C224.206 4.96867 223.416 4.44742 222.558 4.13986C221.697 3.83553 220.774 3.68013 219.786 3.68013C218.695 3.68013 217.679 3.88409 216.746 4.29526C215.811 4.70643 214.995 5.27624 214.299 6.01116C213.603 6.74284 213.065 7.59755 212.683 8.57205C212.301 9.54655 212.11 10.6052 212.11 11.7481C212.11 12.8909 212.301 13.9496 212.683 14.9241C213.065 15.8986 213.603 16.7501 214.299 17.485C214.995 18.2167 215.811 18.7897 216.746 19.2009C217.682 19.6121 218.695 19.816 219.786 19.816C220.774 19.816 221.706 19.6542 222.58 19.3336C223.455 19.0131 224.238 18.4789 224.928 17.7408L225.196 18.1034C224.523 18.8286 223.717 19.3725 222.784 19.7319C221.849 20.0945 220.852 20.2758 219.786 20.2758L219.783 20.2725ZM224.766 18.1001V11.9197H225.193V18.1001H224.766Z" fill="black"/>
<path d="M230.693 20.2016V3.29834H231.075L242.837 19.6447H242.591V3.29834H243.041V20.2016H242.659L230.897 3.8552H231.143V20.2016H230.693Z" fill="black"/>
<path d="M165.499 42.6763C164.46 42.6763 163.537 42.5048 162.731 42.1583C161.922 41.8119 161.287 41.3328 160.828 40.7209C160.365 40.109 160.135 39.3838 160.135 38.5485C160.135 37.9204 160.284 37.3247 160.578 36.7614C160.876 36.198 161.365 35.6217 162.048 35.0357C162.731 34.4497 163.667 33.8087 164.855 33.1159C165.959 32.4716 166.824 31.918 167.452 31.4485C168.077 30.9823 168.523 30.5323 168.786 30.0952C169.048 29.6614 169.181 29.179 169.181 28.6448C169.181 27.8711 168.922 27.2527 168.4 26.7865C167.882 26.3203 167.134 26.0872 166.163 26.0872C165.14 26.0872 164.347 26.3462 163.777 26.8609C163.207 27.3757 162.926 28.0524 162.926 28.8909C162.926 29.2762 162.984 29.6485 163.097 30.0014C163.214 30.3543 163.427 30.746 163.741 31.1734C164.055 31.6007 164.493 32.1187 165.053 32.7306L174.251 42.5339L173.878 42.8479L164.606 32.9475C164.03 32.3194 163.58 31.7852 163.259 31.3417C162.939 30.8982 162.718 30.4838 162.605 30.0985C162.489 29.7132 162.433 29.3085 162.433 28.8909C162.433 28.2304 162.586 27.6606 162.89 27.175C163.194 26.6926 163.628 26.3138 164.188 26.0386C164.748 25.7667 165.409 25.6274 166.166 25.6274C166.875 25.6274 167.491 25.7472 168.009 25.99C168.527 26.2329 168.931 26.5793 169.219 27.0293C169.508 27.4793 169.653 28.02 169.653 28.6481C169.653 29.2114 169.517 29.7326 169.245 30.2053C168.973 30.6812 168.51 31.1701 167.86 31.6784C167.209 32.1867 166.315 32.7759 165.176 33.4526C164.004 34.1454 163.087 34.7638 162.421 35.3109C161.754 35.8581 161.287 36.3858 161.025 36.8909C160.763 37.3991 160.63 37.9495 160.63 38.5452C160.63 39.2866 160.837 39.9374 161.249 40.5007C161.66 41.064 162.233 41.4979 162.968 41.8054C163.699 42.113 164.544 42.2652 165.503 42.2652C166.739 42.2652 167.83 42.0224 168.779 41.54C169.728 41.0576 170.518 40.3259 171.152 39.3417C171.787 38.3607 172.253 37.111 172.551 35.5991L172.972 35.6962C172.658 37.2891 172.162 38.6035 171.489 39.633C170.812 40.6626 169.97 41.4267 168.967 41.9285C167.96 42.427 166.807 42.6763 165.506 42.6763H165.499Z" fill="black"/>
<path d="M178.718 42.6054V25.7021H184.957C186.579 25.7021 187.864 26.0615 188.819 26.777C189.771 27.4925 190.25 28.5609 190.25 29.9757C190.25 30.9081 190.04 31.6851 189.619 32.3067C189.198 32.9283 188.612 33.3913 187.861 33.6956C187.11 34.0032 186.249 34.1554 185.271 34.1554L185.653 33.8413C186.87 33.8413 187.877 34.0064 188.68 34.3367C189.483 34.6669 190.088 35.1525 190.493 35.7968C190.898 36.4411 191.102 37.2375 191.102 38.1861C191.102 39.6042 190.632 40.6952 189.693 41.4593C188.755 42.2233 187.324 42.6054 185.404 42.6054H178.715H178.718ZM179.168 42.1456H185.494C187.175 42.1456 188.457 41.8284 189.334 41.1906C190.211 40.5528 190.652 39.5524 190.652 38.1829C190.652 36.8134 190.211 35.8162 189.334 35.1881C188.457 34.5601 187.175 34.246 185.494 34.246H179.055V33.7863H185.044C186.547 33.7863 187.712 33.4658 188.544 32.8215C189.376 32.1772 189.794 31.2286 189.794 29.9725C189.794 28.7163 189.376 27.7677 188.544 27.1234C187.712 26.4792 186.543 26.1586 185.044 26.1586H179.168V42.1424V42.1456Z" fill="black"/>
<path d="M230.068 42.6054V25.7021H236.375C238.136 25.7021 239.674 26.068 240.992 26.7997C242.31 27.5314 243.333 28.535 244.061 29.8041C244.79 31.0765 245.155 32.5237 245.155 34.1521C245.155 35.7806 244.79 37.2278 244.061 38.4969C243.333 39.7693 242.306 40.7697 240.992 41.5046C239.674 42.2363 238.136 42.6021 236.375 42.6021H230.068V42.6054ZM230.544 42.1456H236.327C238.023 42.1456 239.499 41.7992 240.752 41.1064C242.005 40.4135 242.973 39.4682 243.656 38.2703C244.34 37.0724 244.679 35.6997 244.679 34.1521C244.679 32.6046 244.34 31.2351 243.656 30.034C242.973 28.8361 242.005 27.8907 240.752 27.1979C239.499 26.5051 238.023 26.1586 236.327 26.1586H230.544V42.1424V42.1456Z" fill="black"/>
<path d="M201.612 42.6766C199.602 42.6766 198.015 42.0809 196.85 40.8895C195.684 39.698 195.102 37.9109 195.102 35.5281V25.7021H195.584V35.5054C195.584 37.7588 196.112 39.4423 197.164 40.5528C198.216 41.6632 199.702 42.2201 201.616 42.2201C203.529 42.2201 205.012 41.6665 206.067 40.5528C207.119 39.4423 207.647 37.7588 207.647 35.5054V25.7021H208.13V35.5281C208.13 37.9109 207.547 39.698 206.381 40.8895C205.216 42.0809 203.626 42.6766 201.619 42.6766H201.612Z" fill="black"/>
<path d="M213.049 42.7572V25.854H213.499V42.7572H213.049Z" fill="black"/>
<path d="M218.654 42.7572V25.854H219.062V42.2975H227.593V42.7572H218.65H218.654Z" fill="black"/>
<path d="M159.963 20.2724V3.36914H166.364C168.151 3.36914 169.711 3.73498 171.048 4.46667C172.385 5.19835 173.425 6.20199 174.166 7.47435C174.907 8.7467 175.277 10.1939 175.277 11.8191C175.277 13.4444 174.907 14.8948 174.166 16.1639C173.425 17.4363 172.385 18.4367 171.048 19.1716C169.711 19.9033 168.151 20.2691 166.364 20.2691H159.963V20.2724ZM160.445 19.8126H166.315C168.037 19.8126 169.536 19.4662 170.809 18.7734C172.081 18.0805 173.062 17.1352 173.755 15.9373C174.448 14.7394 174.794 13.3667 174.794 11.8191C174.794 10.2716 174.448 8.9021 173.755 7.70097C173.062 6.50308 172.081 5.55772 170.809 4.86489C169.536 4.17205 168.041 3.82563 166.315 3.82563H160.445V19.8094V19.8126Z" fill="black"/>
<path d="M159.283 51.6086H164.78C164.78 51.6086 164.881 49.6596 163.466 49.6434C162.051 49.6272 160.568 49.6434 160.568 49.6434C160.568 49.6434 159.296 49.6726 159.283 51.1003L159.27 52.5281C159.27 52.5281 159.215 53.8134 160.16 53.8004C161.106 53.7875 163.256 53.8004 163.256 53.8004C163.256 53.8004 164.732 53.8717 164.719 52.7191" stroke="black" stroke-width="0.634558" stroke-linecap="round" stroke-linejoin="round"/>
<path d="M166.703 49.5171V50.7959V54.2018" stroke="black" stroke-width="0.634558" stroke-miterlimit="10"/>
<path d="M166.703 50.7956C166.703 50.7956 167.037 49.7564 168.296 49.7564H170.802C170.802 49.7564 171.974 49.5621 171.987 50.7212C172 51.8802 171.987 54.2015 171.987 54.2015" stroke="black" stroke-width="0.634558" stroke-linejoin="round"/>
<path d="M178.527 51.7349H175.007C174.577 51.7349 174.221 51.382 174.221 50.9482V50.5855C174.221 50.155 174.574 49.7988 175.007 49.7988H178.527C178.957 49.7988 179.313 50.1517 179.313 50.5855V50.8122" stroke="black" stroke-width="0.634558" stroke-linejoin="round"/>
<path d="M175.007 51.7349H178.527C178.957 51.7349 179.313 52.0878 179.313 52.5216V53.1561C179.313 53.5867 178.96 53.9429 178.527 53.9429H175.007C174.577 53.9429 174.221 53.59 174.221 53.1561V52.6867" stroke="black" stroke-width="0.634558" stroke-linejoin="round"/>
<path d="M183.072 49.7437H185.371C186.232 49.7437 186.928 50.443 186.928 51.3009V51.6441H181.512V51.3009C181.512 50.4397 182.211 49.7437 183.069 49.7437H183.072Z" stroke="black" stroke-width="0.634558" stroke-linecap="round" stroke-linejoin="round"/>
<path d="M186.932 51.644H181.516V52.3595C181.516 53.1819 182.183 53.852 183.008 53.852H185.443C186.133 53.852 186.712 53.3858 186.884 52.748" stroke="black" stroke-width="0.634558" stroke-linejoin="round"/>
<path d="M212.097 49.8345H214.409C215.267 49.8345 215.959 50.5305 215.959 51.3853V51.7349H210.543V51.3853C210.543 50.5273 211.239 49.8345 212.094 49.8345H212.097Z" stroke="black" stroke-width="0.634558" stroke-linecap="round" stroke-linejoin="round"/>
<path d="M215.963 51.7349H210.547V52.4504C210.547 53.2727 211.214 53.9429 212.039 53.9429H214.474C215.468 53.972 215.924 53.4281 215.921 52.7417" stroke="black" stroke-width="0.634558" stroke-linejoin="round"/>
<path d="M188.98 54.1857V51.7446C188.98 50.5532 189.945 49.5884 191.137 49.5884H191.703C192.895 49.5884 193.859 50.5532 193.859 51.7446V54.1857" stroke="black" stroke-width="0.634558" stroke-linecap="round" stroke-linejoin="round"/>
<path d="M193.861 54.1857V51.6604C193.861 50.5176 194.79 49.5884 195.933 49.5884H196.668C197.811 49.5884 198.74 50.5176 198.74 51.6604V54.1857" stroke="black" stroke-width="0.634558" stroke-linecap="round" stroke-linejoin="round"/>
<path d="M188.98 49.3389V54.1855" stroke="black" stroke-width="0.634558" stroke-miterlimit="10"/>
<path d="M204.427 49.7827H202.53C201.556 49.7827 200.766 50.5727 200.766 51.5472V52.3274C200.766 53.3019 201.556 54.0919 202.53 54.0919H204.427C205.402 54.0919 206.192 53.3019 206.192 52.3274V51.5472C206.192 50.5727 205.402 49.7827 204.427 49.7827Z" stroke="black" stroke-width="0.634558" stroke-linecap="round" stroke-linejoin="round"/>
<path d="M200.668 47.3838V54.2765" stroke="black" stroke-width="0.634558" stroke-miterlimit="10"/>
<path d="M208.344 47.293V54.1857" stroke="black" stroke-width="0.634558" stroke-miterlimit="10"/>
<path d="M123.683 41.0187C123.683 47.4582 118.467 52.6739 112.028 52.6739V29.3604C118.467 29.3604 123.683 34.5825 123.683 41.0155V41.0187Z" fill="black"/>
<path d="M140.21 41.3586C140.21 47.7981 134.994 53.0137 128.555 53.0137V29.7002C134.994 29.7002 140.21 34.9224 140.21 41.3554V41.3586Z" fill="black"/>
<path d="M140.21 15.0243C140.21 21.4638 134.994 26.6794 128.555 26.6794V3.36914C134.994 3.36914 140.21 8.5913 140.21 15.0243Z" fill="black"/>
</g>
<path d="M86.3281 2.92383V54.3211" stroke="black" stroke-width="0.35855" stroke-miterlimit="10"/>
<g clip-path="url(#clip1_503_746)">
<path d="M13.6838 5.58545C13.7849 6.61565 14.029 8.11476 14.6704 9.80735C15.1899 11.174 16.9941 15.931 22.0823 18.408C27.2316 20.9147 32.149 19.3389 33.1739 18.985C28.4709 22.1541 22.6959 22.6927 18.1724 20.268C14.599 18.3505 12.943 15.1972 12.3364 13.8549C11.9964 12.6417 11.3933 9.78295 12.7844 6.99566C13.0528 6.45702 13.3631 5.98812 13.6821 5.58545H13.6838Z" fill="black"/>
<path d="M14.9922 9.77239C15.6232 11.139 17.0526 13.6282 19.812 15.7601C21.8114 17.3045 23.3715 18.0436 24.6161 18.4149C25.2088 17.6009 27.3267 14.7438 31.0762 13.8304C33.426 13.2587 35.6624 13.5254 36.7101 13.7956C36.8024 13.0216 37.3097 9.61377 34.5276 6.65216C32.394 4.38084 30.039 3.1955 29.0088 2.91659C24.1577 1.59878 20.4726 3.9189 19.6028 4.4924C17.1293 6.12399 15.5552 8.67944 14.9939 9.77239H14.9922Z" fill="black"/>
<path d="M24.3016 1.90364C24.3277 2.1564 27.3085 1.40336 30.8872 2.89375C31.7831 3.26678 33.8191 4.14359 35.4769 6.25628C35.9371 6.84198 38.0288 9.50551 37.7116 12.9622C37.295 17.5257 33.0295 20.1335 31.6541 20.8447C28.4154 22.5181 23.5276 23.3426 19.4173 21.779C15.5701 20.3165 13.0234 16.513 13.053 16.7587C13.0844 17.0167 15.2006 21.7023 20.0082 24.962C21.4062 25.9103 24.9134 28.5076 30.101 28.5651C31.3909 28.579 38.2868 28.4814 43.0648 23.1369C43.8858 22.2183 47.9439 17.6809 46.9276 11.5764C45.737 4.419 38.6285 1.47657 37.6262 1.08088C30.7983 -1.61403 24.2632 1.52364 24.3033 1.9019L24.3016 1.90364Z" fill="black"/>
<path d="M12.2992 16.3677C13.1359 18.3461 14.8878 22.0521 18.4647 24.9335C20.044 26.206 21.9144 27.0723 23.2392 27.6005C23.4362 28.4616 23.8493 30.6719 26.0178 32.4866C27.2659 33.5307 28.5977 34.1617 29.4117 34.3901C28.3222 34.4912 20.8912 35.0298 15.8849 29.8718C13.2824 27.1909 12.4265 23.9399 12.2766 23.3995C11.4468 20.41 12.043 17.6663 12.301 16.3694L12.2992 16.3677Z" fill="black"/>
<path d="M12.4883 26.4678C13.759 28.4131 16.8235 32.4607 22.175 34.3241C25.0668 35.3317 27.6118 35.3491 29.2242 35.3474C31.3247 35.3439 34.5931 35.3142 38.3723 33.5171C41.5605 32.0005 43.1764 30.2574 44.8306 28.5648C44.9474 30.0935 43.7935 34.5351 39.2508 37.7337C35.1736 40.603 30.8436 40.3607 29.0726 40.2439C21.7671 39.7662 16.9281 34.7355 16.1088 33.7855C13.7538 31.0523 12.9432 28.1168 12.4883 26.4678Z" fill="black"/>
</g>
<path fill-rule="evenodd" clip-rule="evenodd" d="M5.59204 51.168C5.58883 50.6777 5.45745 50.3316 5.19788 50.1361C5.02803 50.0047 4.79089 49.915 4.48325 49.8637C4.19483 49.8156 3.77823 49.79 3.23665 49.7868V49.085C4.06344 49.085 4.66271 49.133 5.03765 49.2228C5.4222 49.3125 5.73304 49.4919 5.96377 49.7547C6.15285 49.9758 6.28744 50.229 6.35794 50.5206C6.42845 50.8122 6.4669 51.2545 6.47331 51.8473H3.23665V51.168H5.59204ZM3.23665 54.254V53.5522C3.34881 53.5522 3.46739 53.5522 3.59237 53.5522C4.16279 53.5522 4.58258 53.5266 4.84857 53.4721C5.11134 53.4208 5.31004 53.3215 5.44463 53.1805C5.54397 53.0715 5.60486 52.8888 5.63049 52.6357H6.46369C6.45087 53.2381 6.23617 53.6579 5.82598 53.8983C5.41258 54.1354 4.70116 54.2572 3.67889 54.2572C3.52506 54.2572 3.37765 54.2572 3.23665 54.254ZM3.23665 49.79C3.2046 49.79 3.16936 49.79 3.13411 49.79C2.61817 49.79 2.224 49.8124 1.95161 49.8637C1.68242 49.9086 1.46771 49.9919 1.31709 50.1136C1.06713 50.3091 0.922928 50.6616 0.881268 51.1712H3.23665V51.8505H0.855625C0.878058 52.4786 0.999834 52.9081 1.22736 53.142C1.38118 53.299 1.62473 53.408 1.95801 53.4689C2.23681 53.5169 2.66302 53.5458 3.23665 53.5522V54.254C2.60854 54.2444 2.11504 54.2123 1.75612 54.1579C1.31709 54.0938 0.987015 53.9816 0.765897 53.8278C0.256364 53.4657 0 52.7542 0 51.6839C0 50.9372 0.108953 50.3764 0.326867 50.0015C0.531962 49.6458 0.826782 49.4022 1.21454 49.2772C1.6023 49.1523 2.24963 49.0882 3.15974 49.0882H3.23986V49.79H3.23665Z" fill="black"/>
<path fill-rule="evenodd" clip-rule="evenodd" d="M7.77332 49.1491H8.57127V49.9085H8.62895C8.802 49.5849 9.05837 49.367 9.40767 49.2548C9.75697 49.1426 10.3466 49.085 11.1766 49.085C11.9009 49.085 12.436 49.1266 12.7853 49.2035C13.1346 49.2837 13.407 49.4279 13.6057 49.6394C13.7627 49.8028 13.8717 50.0111 13.9358 50.2643C13.9967 50.511 14.0287 50.8731 14.0287 51.3442V54.1931H13.234V51.6839C13.234 51.2353 13.2147 50.9116 13.1763 50.7161C13.141 50.5206 13.0641 50.354 12.9488 50.2194C12.8142 50.0624 12.6091 49.9534 12.3303 49.8861C12.0515 49.8188 11.6381 49.7868 11.0837 49.7868C10.4684 49.7868 9.98771 49.8316 9.64161 49.9214C9.29872 50.0111 9.03914 50.1585 8.86609 50.3636C8.74752 50.5142 8.66741 50.6809 8.63216 50.8667C8.5937 51.0494 8.57447 51.3827 8.57447 51.857V54.1899H7.77652V49.1458L7.77332 49.1491Z" fill="black"/>
<path fill-rule="evenodd" clip-rule="evenodd" d="M15.2921 52.4334H16.1446V52.5744C16.1446 52.8467 16.1734 53.0422 16.2311 53.1576C16.2888 53.2762 16.4041 53.3659 16.5804 53.43C16.8111 53.5133 17.4713 53.5518 18.5673 53.5518C19.253 53.5518 19.7273 53.5357 19.9933 53.5069C20.2625 53.4781 20.4548 53.4172 20.5701 53.3274C20.7304 53.2089 20.8105 53.023 20.8105 52.7698C20.8105 52.4654 20.7143 52.2571 20.5221 52.1449C20.3298 52.036 19.9837 51.9815 19.4742 51.9847C19.3139 51.9879 18.548 51.9783 17.1733 51.9591C16.8143 51.9527 16.5291 51.9238 16.3144 51.8725C16.0997 51.8245 15.9235 51.7444 15.7825 51.6322C15.5133 51.4239 15.3787 51.0714 15.3787 50.5747C15.3787 50.0491 15.5485 49.6678 15.8818 49.4306C16.0613 49.3089 16.3497 49.2191 16.7534 49.1614C17.1572 49.107 17.7405 49.0781 18.4968 49.0781C19.3428 49.0781 19.9677 49.123 20.3682 49.2159C20.772 49.3089 21.0668 49.4723 21.2527 49.7062C21.3456 49.8184 21.4033 49.937 21.429 50.0651C21.4578 50.1901 21.4706 50.4016 21.4706 50.6997H20.631C20.6278 50.392 20.5765 50.1901 20.4772 50.094C20.3682 49.9818 20.1567 49.9017 19.8395 49.8536C19.5222 49.8024 19.0672 49.7767 18.4679 49.7767C17.3751 49.7767 16.715 49.8536 16.4811 50.0075C16.3112 50.1196 16.2247 50.3119 16.2247 50.5811C16.2247 50.8503 16.324 51.0425 16.5227 51.1291C16.7214 51.2188 17.122 51.2573 17.7244 51.2476C18.3205 51.2348 19.0928 51.2476 20.0382 51.2893C20.6118 51.3117 21.0284 51.4367 21.2816 51.6674C21.5315 51.8982 21.6597 52.2635 21.6597 52.7634C21.6597 53.0647 21.6148 53.3082 21.5283 53.4973C21.4386 53.6832 21.2976 53.837 21.0957 53.9587C20.9226 54.0645 20.6406 54.1414 20.2465 54.1863C19.8555 54.2311 19.2851 54.2536 18.5416 54.2536C17.7084 54.2536 17.0899 54.2247 16.6894 54.1767C16.2856 54.1254 15.9907 54.0389 15.8049 53.9107C15.6126 53.7825 15.478 53.6287 15.4043 53.4492C15.3274 53.2698 15.2889 53.0166 15.2889 52.6929C15.2889 52.6513 15.2889 52.5615 15.2953 52.4301L15.2921 52.4334Z" fill="black"/>
<path fill-rule="evenodd" clip-rule="evenodd" d="M28.4337 51.168C28.4305 50.6777 28.2991 50.3316 28.0396 50.1361C27.8697 50.0047 27.6326 49.915 27.3249 49.8637C27.0365 49.8156 26.6199 49.79 26.0783 49.7868V49.085C26.9051 49.085 27.5044 49.133 27.8793 49.2228C28.2671 49.3125 28.5747 49.4919 28.8054 49.7547C28.9977 49.9758 29.1291 50.229 29.1996 50.5206C29.2701 50.8122 29.3086 51.2545 29.315 51.8473H26.0783V51.168H28.4337ZM26.0783 54.254V53.5522C26.1905 53.5522 26.3091 53.5522 26.434 53.5522C27.0045 53.5522 27.4211 53.5266 27.687 53.4721C27.953 53.4208 28.1517 53.3215 28.2831 53.1805C28.3824 53.0715 28.4465 52.8888 28.469 52.6357H29.3054C29.2893 53.2381 29.0778 53.6579 28.6677 53.8983C28.2575 54.1354 27.5396 54.2572 26.5206 54.2572C26.3667 54.2572 26.2193 54.2572 26.0815 54.254H26.0783ZM26.0783 49.79C26.0463 49.79 26.011 49.79 25.9758 49.79C25.4598 49.79 25.0657 49.8124 24.7933 49.8637C24.5241 49.9086 24.3094 49.9919 24.1588 50.1136C23.9088 50.3091 23.7646 50.6616 23.7229 51.1712H26.0783V51.8505H23.6973C23.7197 52.4786 23.8415 52.9081 24.069 53.142C24.2197 53.299 24.4664 53.408 24.7997 53.4689C25.0817 53.5169 25.5079 53.5458 26.0783 53.5522V54.254C25.4502 54.2444 24.9567 54.2123 24.5978 54.1579C24.162 54.0938 23.8287 53.9816 23.6076 53.8278C23.098 53.4657 22.8417 52.7542 22.8417 51.6839C22.8417 50.9372 22.9506 50.3764 23.1653 50.0015C23.3704 49.6458 23.6685 49.4022 24.0562 49.2772C24.444 49.1523 25.0913 49.0882 25.9982 49.0882H26.0783V49.79Z" fill="black"/>
<path fill-rule="evenodd" clip-rule="evenodd" d="M30.6165 49.1491H31.4209V49.8124C31.674 49.508 31.924 49.3093 32.1804 49.2228C32.4367 49.1298 32.8726 49.085 33.4878 49.085C34.3114 49.085 34.9043 49.1459 35.2664 49.2676C35.6253 49.3862 35.9041 49.6201 36.1028 49.963C36.2662 49.633 36.5194 49.4054 36.8559 49.2772C37.1988 49.1491 37.7275 49.085 38.4518 49.085C39.176 49.085 39.6535 49.1298 39.9964 49.2196C40.3361 49.3093 40.6149 49.4663 40.8264 49.697C40.9898 49.8797 41.0956 50.0848 41.1469 50.3155C41.1981 50.5431 41.2206 50.9532 41.2206 51.5397V54.1931H40.4226V51.357C40.4226 50.7353 40.3297 50.338 40.147 50.1553C39.8971 49.9117 39.3299 49.79 38.4454 49.79C37.9358 49.79 37.5513 49.8252 37.2853 49.8925C37.0193 49.9598 36.8174 50.072 36.6796 50.2322C36.5418 50.3957 36.4457 50.6104 36.3976 50.886C36.3496 51.1551 36.3239 51.5974 36.3239 52.2095V54.1995H35.526V51.3634C35.526 51.0045 35.5067 50.7417 35.4683 50.5687C35.4298 50.3989 35.3561 50.2675 35.2504 50.1649C34.9908 49.9182 34.4236 49.7932 33.5391 49.7932C33.0296 49.7932 32.6354 49.8284 32.3598 49.8957C32.0874 49.9662 31.8759 50.0816 31.7253 50.2482C31.5971 50.3924 31.5138 50.5911 31.4721 50.8411C31.4273 51.0911 31.408 51.5461 31.408 52.2063V54.1963H30.6133V49.1523L30.6165 49.1491Z" fill="black"/>
<path fill-rule="evenodd" clip-rule="evenodd" d="M45.8903 53.5585C45.98 53.5585 46.0697 53.5585 46.1659 53.5585C46.6305 53.5585 46.9863 53.5361 47.2362 53.4912C47.483 53.4463 47.6945 53.363 47.8611 53.2477C48.031 53.1323 48.1527 52.9496 48.2296 52.7061C48.3034 52.4625 48.345 52.1228 48.345 51.6902C48.345 51.1134 48.2777 50.6968 48.1431 50.4436C48.0021 50.1776 47.7746 50.0014 47.4669 49.9181C47.1753 49.8379 46.6498 49.7963 45.8871 49.7899V49.0881C46.6466 49.0881 47.1913 49.1169 47.5246 49.1682C47.8771 49.2227 48.1656 49.3284 48.3867 49.4854C48.6655 49.6873 48.8674 49.9405 48.9859 50.2449C49.1237 50.5942 49.1942 51.0942 49.1942 51.7447C49.1942 52.4593 49.0853 52.9977 48.8738 53.3534C48.595 53.8213 48.0886 54.1033 47.358 54.1994C47.0568 54.2379 46.5665 54.2571 45.8871 54.2571V53.5585H45.8903ZM45.7685 49.7899C45.2429 49.7899 44.8424 49.8123 44.57 49.854C44.2976 49.8988 44.0893 49.9725 43.9387 50.0815C43.756 50.2065 43.6246 50.3955 43.5477 50.6391C43.4708 50.8826 43.4323 51.232 43.4323 51.6838C43.4323 52.2831 43.4964 52.6965 43.6214 52.924C43.772 53.1804 44.0092 53.3534 44.336 53.4335C44.6277 53.5072 45.1436 53.5489 45.8839 53.5553V54.2539C45.0795 54.2539 44.5251 54.209 44.2239 54.1193C43.9194 54.0296 43.6759 53.8405 43.49 53.5457H43.4452V54.1898H42.66V46.9346H43.4548V49.7514H43.5028C43.6855 49.4822 43.9259 49.306 44.2239 49.2163C44.5219 49.1265 45.0314 49.0817 45.7493 49.0817C45.7941 49.0817 45.8422 49.0817 45.8871 49.0817V49.7835C45.8454 49.7835 45.807 49.7835 45.7653 49.7835L45.7685 49.7899Z" fill="black"/>
<path d="M51.363 46.9375H50.5682V54.1927H51.363V46.9375Z" fill="black"/>
<path fill-rule="evenodd" clip-rule="evenodd" d="M58.3263 51.168C58.3231 50.6777 58.1917 50.3316 57.9321 50.1361C57.7623 50.0047 57.5219 49.915 57.2175 49.8637C56.9291 49.8156 56.5125 49.79 55.9709 49.7868V49.085C56.7977 49.085 57.397 49.133 57.7719 49.2228C58.1564 49.3125 58.4673 49.4919 58.698 49.7547C58.8871 49.9758 59.0217 50.229 59.0922 50.5206C59.1627 50.8122 59.2012 51.2545 59.2076 51.8473H55.9709V51.168H58.3263ZM55.9709 54.254V53.5522C56.0831 53.5522 56.2016 53.5522 56.3266 53.5522C56.9002 53.5522 57.3168 53.5266 57.5828 53.4721C57.8488 53.4208 58.0443 53.3215 58.1789 53.1805C58.275 53.0715 58.3391 52.8888 58.3648 52.6357H59.1979C59.1851 53.2381 58.9736 53.6579 58.5602 53.8983C58.15 54.1354 57.4354 54.2572 56.4131 54.2572C56.2593 54.2572 56.1119 54.2572 55.9709 54.254ZM55.9709 49.79C55.9389 49.79 55.9036 49.79 55.8684 49.79C55.3524 49.79 54.9583 49.8124 54.6859 49.8637C54.4167 49.9086 54.202 49.9919 54.0513 50.1136C53.8014 50.3091 53.6572 50.6616 53.6155 51.1712H55.9709V51.8505H53.5899C53.6123 52.4786 53.7341 52.9081 53.9616 53.142C54.1154 53.299 54.359 53.408 54.6923 53.4689C54.9711 53.5169 55.3973 53.5458 55.9709 53.5522V54.254C55.3428 54.2444 54.8493 54.2123 54.4904 54.1579C54.0545 54.0938 53.7245 53.9816 53.5001 53.8278C52.9906 53.4657 52.7343 52.7542 52.7343 51.6839C52.7343 50.9372 52.8432 50.3764 53.0579 50.0015C53.263 49.6458 53.561 49.4022 53.9456 49.2772C54.3334 49.1523 54.9807 49.0882 55.8876 49.0882H55.9677V49.79H55.9709Z" fill="black"/>
<defs>
<clipPath id="clip0_503_746">
<rect width="145.728" height="53.4259" fill="white" transform="translate(112.027 1.07715)"/>
</clipPath>
<clipPath id="clip1_503_746">
<rect width="35.2395" height="40.3051" fill="white" transform="translate(11.8496)"/>
</clipPath>
</defs>
</svg>
