<svg width="55" height="55" viewBox="0 0 55 55" fill="none" xmlns="http://www.w3.org/2000/svg">
<g clip-path="url(#clip0_370_926)">
<path d="M43.0078 34.1719H39.8203V27.1328C39.8197 26.6046 39.6097 26.0982 39.2362 25.7247C38.8627 25.3513 38.3563 25.1412 37.8281 25.1406H34.1094V24.2109C34.1094 24.1053 34.0674 24.0039 33.9927 23.9292C33.918 23.8545 33.8166 23.8125 33.7109 23.8125C33.6053 23.8125 33.5039 23.8545 33.4292 23.9292C33.3545 24.0039 33.3125 24.1053 33.3125 24.2109V25.1406H22.6875V24.2109C22.6875 24.1053 22.6455 24.0039 22.5708 23.9292C22.4961 23.8545 22.3947 23.8125 22.2891 23.8125C22.1834 23.8125 22.082 23.8545 22.0073 23.9292C21.9326 24.0039 21.8906 24.1053 21.8906 24.2109V25.1406H18.1719C17.6437 25.1412 17.1373 25.3513 16.7638 25.7247C16.3903 26.0982 16.1803 26.6046 16.1797 27.1328V34.1719H12.9922C12.464 34.1724 11.9576 34.3825 11.5841 34.756C11.2106 35.1295 11.0006 35.6359 11 36.1641V42.0078C11.0006 42.536 11.2106 43.0424 11.5841 43.4159C11.9576 43.7894 12.464 43.9994 12.9922 44H43.0078C43.536 43.9994 44.0424 43.7894 44.4159 43.4159C44.7894 43.0424 44.9994 42.536 45 42.0078V36.1641C44.9994 35.6359 44.7894 35.1295 44.4159 34.756C44.0424 34.3825 43.536 34.1724 43.0078 34.1719ZM28.3984 25.9375H37.8281C38.145 25.9379 38.4489 26.0639 38.673 26.288C38.897 26.5121 39.0231 26.8159 39.0234 27.1328V34.1719H28.3984V25.9375ZM16.9766 27.1328C16.9769 26.8159 17.103 26.5121 17.327 26.288C17.5511 26.0639 17.855 25.9379 18.1719 25.9375H27.6016V34.1719H16.9766V27.1328ZM21.8906 43.2031H12.9922C12.6753 43.2028 12.3715 43.0767 12.1474 42.8526C11.9233 42.6285 11.7972 42.3247 11.7969 42.0078V36.1641C11.7972 35.8472 11.9233 35.5433 12.1474 35.3192C12.3715 35.0951 12.6753 34.9691 12.9922 34.9688H21.8906V43.2031ZM33.3125 43.2031H22.6875V34.9688H33.3125V43.2031ZM44.2031 42.0078C44.2028 42.3247 44.0767 42.6285 43.8526 42.8526C43.6285 43.0767 43.3247 43.2028 43.0078 43.2031H34.1094V34.9688H43.0078C43.3247 34.9691 43.6285 35.0951 43.8526 35.3192C44.0767 35.5433 44.2028 35.8472 44.2031 36.1641V42.0078Z" fill="black"/>
<path d="M22.2891 19.8281C22.3947 19.8281 22.4961 19.7861 22.5708 19.7114C22.6455 19.6367 22.6875 19.5354 22.6875 19.4297V19.426C23.0314 19.6868 23.4512 19.828 23.8828 19.8281H32.1172C32.5488 19.828 32.9686 19.6868 33.3125 19.426V19.4297C33.3125 19.5354 33.3545 19.6367 33.4292 19.7114C33.5039 19.7861 33.6053 19.8281 33.7109 19.8281C33.8166 19.8281 33.918 19.7861 33.9927 19.7114C34.0674 19.6367 34.1094 19.5354 34.1094 19.4297V11.9922C34.1088 11.464 33.8987 10.9576 33.5253 10.5841C33.1518 10.2106 32.6454 10.0006 32.1172 10H23.8828C23.3546 10.0006 22.8482 10.2106 22.4747 10.5841C22.1013 10.9576 21.8912 11.464 21.8906 11.9922V19.4297C21.8906 19.5354 21.9326 19.6367 22.0073 19.7114C22.082 19.7861 22.1834 19.8281 22.2891 19.8281ZM22.6875 11.9922C22.6879 11.6753 22.8139 11.3715 23.038 11.1474C23.2621 10.9233 23.5659 10.7972 23.8828 10.7969H32.1172C32.4341 10.7972 32.7379 10.9233 32.962 11.1474C33.1861 11.3715 33.3121 11.6753 33.3125 11.9922V17.8359C33.3121 18.1528 33.1861 18.4567 32.962 18.6808C32.7379 18.9049 32.4341 19.0309 32.1172 19.0312H23.8828C23.5659 19.0309 23.2621 18.9049 23.038 18.6808C22.8139 18.4567 22.6879 18.1528 22.6875 17.8359V11.9922Z" fill="black"/>
<path d="M22.2891 23.0156C22.3947 23.0156 22.4961 22.9736 22.5708 22.8989C22.6455 22.8242 22.6875 22.7229 22.6875 22.6172V21.0234C22.6875 20.9178 22.6455 20.8164 22.5708 20.7417C22.4961 20.667 22.3947 20.625 22.2891 20.625C22.1834 20.625 22.082 20.667 22.0073 20.7417C21.9326 20.8164 21.8906 20.9178 21.8906 21.0234V22.6172C21.8906 22.7229 21.9326 22.8242 22.0073 22.8989C22.082 22.9736 22.1834 23.0156 22.2891 23.0156Z" fill="black"/>
<path d="M33.7109 20.625C33.6053 20.625 33.5039 20.667 33.4292 20.7417C33.3545 20.8164 33.3125 20.9178 33.3125 21.0234V22.6172C33.3125 22.7229 33.3545 22.8242 33.4292 22.8989C33.5039 22.9736 33.6053 23.0156 33.7109 23.0156C33.8166 23.0156 33.918 22.9736 33.9927 22.8989C34.0674 22.8242 34.1094 22.7229 34.1094 22.6172V21.0234C34.1094 20.9178 34.0674 20.8164 33.9927 20.7417C33.918 20.667 33.8166 20.625 33.7109 20.625Z" fill="black"/>
<path d="M14.0299 22.0193C14.2519 22.2292 14.5458 22.3462 14.8514 22.3462C15.1569 22.3462 15.4509 22.2292 15.6728 22.0193L18.0539 19.7668C18.2277 19.6024 18.3481 19.3896 18.3997 19.156C18.4512 18.9224 18.4315 18.6787 18.343 18.4564C18.2546 18.2342 18.1014 18.0436 17.9035 17.9093C17.7055 17.775 17.4718 17.7032 17.2326 17.7031H16.8437V14.6484C16.8433 14.3315 16.7173 14.0277 16.4932 13.8036C16.2691 13.5795 15.9653 13.4535 15.6484 13.4531H14.0546C13.7377 13.4535 13.4339 13.5795 13.2098 13.8036C12.9857 14.0277 12.8597 14.3315 12.8593 14.6484V17.7031H12.4704C12.2312 17.7032 11.9975 17.775 11.7995 17.9093C11.6016 18.0436 11.4485 18.2342 11.36 18.4564C11.2715 18.6787 11.2518 18.9224 11.3033 19.156C11.3549 19.3896 11.4754 19.6024 11.6491 19.7668L14.0299 22.0193ZM12.1004 18.7521C12.1287 18.6771 12.1794 18.6127 12.2457 18.5676C12.3119 18.5225 12.3903 18.4989 12.4704 18.5H13.2578C13.3634 18.5 13.4648 18.458 13.5395 18.3833C13.6142 18.3086 13.6562 18.2072 13.6562 18.1016V14.6484C13.6562 14.5428 13.6982 14.4414 13.7729 14.3667C13.8476 14.292 13.949 14.25 14.0546 14.25H15.6484C15.7541 14.25 15.8554 14.292 15.9301 14.3667C16.0048 14.4414 16.0468 14.5428 16.0468 14.6484V18.1016C16.0468 18.2072 16.0888 18.3086 16.1635 18.3833C16.2382 18.458 16.3396 18.5 16.4453 18.5H17.2326C17.3124 18.4998 17.3904 18.5235 17.4566 18.5682C17.5228 18.6128 17.574 18.6763 17.6037 18.7504C17.6333 18.8245 17.64 18.9058 17.6229 18.9838C17.6058 19.0618 17.5657 19.1328 17.5078 19.1877L15.1251 21.4405C15.0511 21.5104 14.9532 21.5494 14.8514 21.5494C14.7496 21.5494 14.6516 21.5104 14.5776 21.4405L12.1966 19.188C12.1376 19.1338 12.0968 19.0628 12.0795 18.9847C12.0623 18.9065 12.0696 18.8249 12.1004 18.751V18.7521Z" fill="black"/>
<path d="M40.3268 22.0193C40.5488 22.2293 40.8428 22.3464 41.1484 22.3464C41.454 22.3464 41.748 22.2293 41.97 22.0193L44.351 19.7668C44.5248 19.6024 44.6453 19.3896 44.6968 19.1559C44.7484 18.9223 44.7286 18.6786 44.6401 18.4563C44.5516 18.234 44.3985 18.0434 44.2005 17.9091C44.0025 17.7749 43.7687 17.7031 43.5295 17.7031H43.1406V14.6484C43.1402 14.3315 43.0142 14.0277 42.7901 13.8036C42.566 13.5795 42.2622 13.4535 41.9453 13.4531H40.3515C40.0346 13.4535 39.7308 13.5795 39.5067 13.8036C39.2826 14.0277 39.1566 14.3315 39.1562 14.6484V17.7031H38.7673C38.5281 17.7031 38.2943 17.7749 38.0963 17.9091C37.8983 18.0434 37.7452 18.234 37.6567 18.4563C37.5682 18.6786 37.5484 18.9223 37.6 19.1559C37.6515 19.3896 37.772 19.6024 37.9458 19.7668L40.3268 22.0193ZM38.3973 18.7521C38.4256 18.6771 38.4763 18.6127 38.5426 18.5676C38.6088 18.5225 38.6872 18.4989 38.7673 18.5H39.5547C39.6603 18.5 39.7617 18.458 39.8364 18.3833C39.9111 18.3086 39.9531 18.2072 39.9531 18.1016V14.6484C39.9531 14.5428 39.9951 14.4414 40.0698 14.3667C40.1445 14.292 40.2459 14.25 40.3515 14.25H41.9453C42.051 14.25 42.1523 14.292 42.227 14.3667C42.3017 14.4414 42.3437 14.5428 42.3437 14.6484V18.1016C42.3437 18.2072 42.3857 18.3086 42.4604 18.3833C42.5351 18.458 42.6365 18.5 42.7422 18.5H43.5295C43.6092 18.5001 43.687 18.5241 43.7529 18.5688C43.8188 18.6136 43.8698 18.6771 43.8993 18.7512C43.9287 18.8252 43.9353 18.9064 43.9182 18.9842C43.901 19.062 43.8609 19.1329 43.8031 19.1877L41.422 21.4405C41.348 21.5103 41.2501 21.5493 41.1484 21.5493C41.0467 21.5493 40.9488 21.5103 40.8748 21.4405L38.4937 19.188C38.4347 19.1339 38.3938 19.0629 38.3765 18.9847C38.3593 18.9065 38.3665 18.8249 38.3973 18.751V18.7521Z" fill="black"/>
</g>
<defs>
<clipPath id="clip0_370_926">
<rect width="34" height="34" fill="white" transform="translate(11 10)"/>
</clipPath>
</defs>
</svg>
