<svg width="55" height="55" viewBox="0 0 55 55" fill="none" xmlns="http://www.w3.org/2000/svg">
<g clip-path="url(#clip0_2389_63)">
<path d="M14.0022 23.6495L11.343 20.9852C11.2422 20.8895 11.1021 20.8451 10.9671 20.8622C10.8269 20.8844 10.709 20.9715 10.6441 21.0946C9.76395 22.7831 10.0801 24.8219 11.4233 26.1652C12.6265 27.3683 14.3714 27.7529 15.9523 27.1838L17.3127 28.5441C15.1303 30.4906 13.7512 33.3225 13.7512 36.4721V43.6121C13.7512 44.3777 14.3733 44.9998 15.1389 44.9998H39.8664C40.632 44.9998 41.2541 44.3777 41.2541 43.6121V36.4721C41.2541 33.3224 39.8767 30.4906 37.6926 28.5441L39.0581 27.1838C40.6338 27.7529 42.3786 27.3683 43.5818 26.1652C44.9251 24.822 45.2396 22.7831 44.3611 21.0946C44.2962 20.9715 44.1765 20.8844 44.0381 20.8622C43.9031 20.8399 43.763 20.8878 43.6621 20.9852L41.003 23.6495L40.2288 23.3863L39.9656 22.6122L42.6299 19.953C42.7256 19.8522 42.7735 19.712 42.753 19.577C42.7307 19.4369 42.6436 19.319 42.5205 19.254C40.832 18.3739 38.7932 18.69 37.4499 20.0333C36.2519 21.2313 35.8657 22.9779 36.4314 24.557L34.7993 26.184L33.6577 25.7209C33.5534 25.6764 33.4389 25.6594 33.3244 25.6645C34.0251 24.7023 34.4968 23.5607 34.6454 22.308L34.8471 20.6332H35.0795C35.6879 20.6332 36.1869 20.1342 36.1869 19.5258V18.6423C36.1869 18.0424 35.705 17.5537 35.1068 17.54C34.9188 15.0945 33.5756 12.9721 31.6205 11.7173C31.6376 11.3721 31.4017 10.9996 31.1078 10.8731C28.898 9.71782 26.1159 9.70925 23.9061 10.8731C23.6036 10.9961 23.3728 11.3721 23.3848 11.7224C21.4332 12.982 20.0951 15.0994 19.9071 17.5416C19.3072 17.5553 18.827 18.0441 18.827 18.6439V19.5274C18.827 20.1358 19.326 20.6348 19.9344 20.6348H20.1668L20.3684 22.3096C20.5171 23.5606 20.9905 24.7022 21.6895 25.6661C21.575 25.6661 21.4622 25.6798 21.3562 25.7225L20.2146 26.1856L18.5825 24.5587C19.1465 22.9795 18.762 21.233 17.564 20.0349C16.2207 18.6917 14.1819 18.3772 12.4933 19.2556C12.3703 19.3206 12.2831 19.4402 12.2609 19.5786C12.2387 19.7136 12.2866 19.8538 12.384 19.9546L15.0483 22.6138L14.7851 23.3879L14.0109 23.6511L14.0022 23.6495ZM18.3465 44.1249H15.1353C14.855 44.1249 14.6226 43.8925 14.6226 43.6122V36.4722C14.6226 33.0594 16.3897 30.0497 19.0505 28.3032L20.3066 33.2509C19.5188 33.5226 18.9326 34.2404 18.8796 35.1154L18.3464 44.1235L18.3465 44.1249ZM19.2215 44.1249L19.7547 35.1697C19.7854 34.6844 20.0913 34.2776 20.5203 34.0982L20.792 35.1749C21.0108 36.0447 21.7986 36.636 22.6736 36.636C22.7574 36.636 22.8394 36.636 22.9231 36.6224C23.47 36.5523 23.9417 36.2601 24.2527 35.8003C24.5757 35.315 24.6766 34.7066 24.5245 34.129L24.4903 34.0059H30.5112L30.477 34.129C30.3232 34.7066 30.424 35.315 30.7487 35.8003C31.0598 36.2601 31.5314 36.5523 32.0783 36.6224C32.1621 36.6309 32.2441 36.636 32.3278 36.636C33.2028 36.636 33.9907 36.0447 34.2094 35.1749L34.4812 34.0982C34.9101 34.2777 35.216 34.6844 35.2468 35.1697L35.78 44.1249H19.2215ZM22.6001 26.8831C22.6531 26.8745 22.7044 26.8608 22.7625 26.8523C24.0357 27.9683 25.6985 28.6416 27.4997 28.6416C29.3027 28.6416 30.9656 27.9682 32.237 26.8523C32.29 26.8608 32.3464 26.8745 32.3993 26.8831L30.7416 33.131H24.2579L22.6001 26.8831ZM40.3753 36.4739V43.6139C40.3753 43.8942 40.1429 44.1266 39.8626 44.1266H36.6515L36.1182 35.1185C36.0653 34.2435 35.4791 33.5258 34.6912 33.254L35.9473 28.3063C38.6065 30.0512 40.3753 33.0624 40.3753 36.4753L40.3753 36.4739ZM37.2479 24.9707C37.3744 24.8443 37.4103 24.6512 37.3402 24.4854C36.7626 23.1678 37.0462 21.6639 38.0614 20.6521C38.9893 19.7242 40.3275 19.4148 41.5443 19.7942L39.1517 22.1868C39.0337 22.3013 38.9944 22.4757 39.0474 22.6329L39.4627 23.8702C39.5071 23.9966 39.6062 24.1026 39.7378 24.1453L40.9751 24.5606C41.1324 24.6136 41.3084 24.5743 41.4212 24.4564L43.8138 22.0638C44.1983 23.2805 43.8838 24.6187 42.9559 25.5466C41.9407 26.5618 40.4351 26.8455 39.1226 26.2678C38.9569 26.1926 38.7637 26.2285 38.6373 26.3601L37.0103 27.9836C36.7386 27.7786 36.4549 27.5854 36.166 27.406C36.219 27.0437 36.0174 26.6797 35.6721 26.5395L37.2479 24.969L37.2479 24.9707ZM33.389 26.5601L35.2928 27.3308L33.3583 34.9613C33.2267 35.4825 32.7191 35.8226 32.1893 35.7525C31.8919 35.7184 31.6373 35.5594 31.4715 35.3099C31.287 35.0348 31.2306 34.6844 31.3229 34.3512L33.3873 26.5597L33.389 26.5601ZM23.6323 12.603C23.6802 12.7465 23.7246 12.8747 23.7468 12.9448L24.3193 14.6247C24.4509 15.0058 25.032 14.8263 24.9277 14.4367C24.7791 13.8762 24.3809 12.4115 24.2236 11.8732C24.1672 11.6852 24.1758 11.7023 24.1843 11.6681C26.1582 10.6 28.8428 10.5966 30.8221 11.6681C30.8357 11.7023 30.8443 11.6903 30.7913 11.8783C30.5555 12.7055 30.3145 13.6198 30.1094 14.4504C30.0752 14.5854 30.1487 14.7306 30.2837 14.7785C30.4273 14.8315 30.5896 14.7614 30.646 14.6127C30.8511 14.0607 31.0442 13.5018 31.2374 12.9413C31.263 12.8713 31.3074 12.7397 31.3553 12.5961C32.9515 13.7121 34.0418 15.4928 34.2213 17.535H20.7817C20.9611 15.4962 22.0463 13.7206 23.634 12.6044L23.6323 12.603ZM19.9272 19.757C19.8008 19.757 19.6948 19.6527 19.6948 19.5245V18.641C19.6948 18.5146 19.7991 18.4086 19.9272 18.4086H35.0739C35.2004 18.4086 35.3063 18.5128 35.3063 18.641V19.5245C35.3063 19.651 35.2021 19.757 35.0739 19.757H19.9272ZM21.2261 22.2025L21.0381 20.632H33.9614L33.7734 22.2025C33.3923 25.3744 30.6938 27.7671 27.4997 27.7671C24.3055 27.7671 21.6071 25.3745 21.2261 22.2025ZM21.6106 26.5604L23.6751 34.3518C23.7674 34.6851 23.7093 35.0337 23.5264 35.3106C23.3606 35.5601 23.106 35.7173 22.8086 35.7532C22.2754 35.8233 21.7713 35.4815 21.6397 34.9619L19.7051 27.3315L21.6089 26.5608L21.6106 26.5604ZM15.8496 22.1888L13.457 19.7962C14.6738 19.4151 16.0119 19.7261 16.9399 20.6541C17.955 21.6641 18.2387 23.1697 17.6611 24.4874C17.591 24.6531 17.6269 24.8462 17.7534 24.9727L19.3291 26.5433C19.018 26.6697 18.8266 26.9722 18.8266 27.2952C18.8266 27.3294 18.8318 27.3704 18.8352 27.4097C18.5412 27.5892 18.2627 27.7823 17.9909 27.9874L16.364 26.3638C16.2802 26.2801 16.1708 26.2323 16.0581 26.2323C15.9965 26.2323 15.935 26.2459 15.8786 26.2716C14.5661 26.8492 13.0605 26.5655 12.0454 25.5504C11.1174 24.6224 10.8029 23.2843 11.1875 22.0675L13.5801 24.4601C13.6946 24.578 13.8689 24.6173 14.0261 24.5643L15.2634 24.1491C15.395 24.1046 15.4958 24.0004 15.5385 23.8739L15.9538 22.6366C16.0068 22.4794 15.9675 22.3034 15.8496 22.1906L15.8496 22.1888Z" fill="black"/>
<path d="M22.6824 35.3357C23.0498 35.3357 23.3471 35.0383 23.3471 34.6709C23.3471 34.3035 23.0498 34.0095 22.6824 34.0095C22.3149 34.0095 22.0176 34.3069 22.0176 34.6709C22.0176 35.0332 22.3201 35.3357 22.6824 35.3357Z" fill="black"/>
<path d="M32.3176 35.3357C32.6799 35.3357 32.9824 35.0383 32.9824 34.6709C32.9824 34.3035 32.6799 34.0095 32.3176 34.0095C31.9553 34.0095 31.6528 34.3069 31.6528 34.6709C31.6528 35.0332 31.9502 35.3357 32.3176 35.3357Z" fill="black"/>
</g>
<defs>
<clipPath id="clip0_2389_63">
<rect width="35" height="35" fill="white" transform="translate(10 10)"/>
</clipPath>
</defs>
</svg>
