<svg width="55" height="55" viewBox="0 0 55 55" fill="none" xmlns="http://www.w3.org/2000/svg">
<path fill-rule="evenodd" clip-rule="evenodd" d="M11.3165 45.375C8.85407 45.375 6.86002 43.4379 6.87533 41.105V22.7723C6.84542 20.4648 8.84594 18.5023 11.3165 18.5023C13.7224 18.5023 15.6816 20.3404 15.7547 22.635H19.2291C19.3986 21.9323 19.9502 21.3223 20.683 21.0636V20.7762C20.683 16.054 23.9596 11.9581 28.6321 10.7301C28.5989 10.4139 28.5706 10.168 28.8415 9.89328C29.0109 9.72081 29.2402 9.625 29.4861 9.625H33.5686C34.0804 9.625 34.4958 10.0418 34.4426 10.54L34.4227 10.7301C39.0702 11.9645 42.3718 16.054 42.3718 20.7762V21.0636C43.1444 21.3367 43.6512 21.9467 43.819 22.635H46.2665C46.534 22.635 46.75 22.8442 46.75 23.0997V44.9088C46.75 45.1659 46.5323 45.3735 46.2665 45.3735L11.3165 45.375ZM7.84383 38.4461C9.62337 36.303 13.0098 36.3046 14.7891 38.4461V22.7707C14.7891 20.9279 13.2339 19.4331 11.3164 19.4331C9.399 19.4331 7.84375 20.9278 7.84375 22.7707L7.84383 38.4461ZM15.7577 23.5662V41.1066C15.7577 41.7198 14.789 41.7198 14.789 41.1066C14.789 39.2638 13.2338 37.7691 11.3163 37.7691C9.39887 37.7691 7.84362 39.2637 7.84362 41.1066C7.84362 42.9495 9.39883 44.4442 11.3163 44.4442H45.7837V23.5663H43.8413C43.6386 24.5707 42.7015 25.3485 41.5849 25.3485H21.4735C20.2821 25.3485 19.4281 24.5276 19.222 23.5663L15.7577 23.5662ZM29.778 39.9393V41.046C29.778 41.3031 29.994 41.5106 30.2615 41.5106H38.1009C38.3684 41.5106 38.5844 41.303 38.5844 41.046V39.9393H41.1548C41.4224 39.9393 41.6384 39.7301 41.6384 39.4746L41.64 28.5087C41.64 28.2516 41.4223 28.044 41.1565 28.044H31.232C30.594 28.044 30.594 28.975 31.232 28.975H40.6729V33.5263L33.4269 33.5247V30.8163C33.4269 30.2031 32.4582 30.2031 32.4582 30.8163V33.991C32.4582 34.2481 32.6742 34.4557 32.9417 34.4557H40.6713L40.673 39.0069H38.5861V36.8559C38.5861 36.5988 38.3684 36.3912 38.1026 36.3912H34.2328C33.5947 36.3912 33.5947 37.3222 34.2328 37.3222H37.6174V40.5799H30.747V36.8575C30.747 36.2443 29.7783 36.2443 29.7783 36.8575V39.0085H27.0384C26.4003 39.0085 26.4003 39.9395 27.0384 39.9395L29.7783 39.9379L29.778 39.9393ZM23.4707 39.0067H20.8687V36.8365H25.9947C26.2623 36.8365 26.4782 36.6273 26.4782 36.3718L26.4799 31.6816C26.4799 31.0683 25.5112 31.0683 25.5112 31.6816V35.907H20.8705V28.9732H27.5551C28.1931 28.9732 28.1931 28.0422 27.5551 28.0422H20.3856C20.1181 28.0422 19.9021 28.2498 19.9021 28.5069V39.4712C19.9021 39.7283 20.1198 39.9359 20.3856 39.9359H23.4712C24.1092 39.9391 24.1092 39.0065 23.4712 39.0065L23.4707 39.0067ZM41.4039 20.9312V20.7779C41.4039 18.266 40.3904 15.9617 38.6939 14.2435L38.1173 19.2433C38.0476 19.8517 37.0855 19.7495 37.157 19.141L37.8133 13.4529C36.7997 12.6496 35.6167 12.0364 34.324 11.6707L33.4982 19.3821C33.4733 19.6216 33.2623 19.7989 33.018 19.7989V19.8005H30.0405C29.778 19.8005 29.5636 19.5992 29.557 19.3485L28.7345 11.669C27.4368 12.0315 26.2505 12.6431 25.2369 13.4464L25.8949 19.1411C25.9647 19.7496 25.0043 19.8518 24.9345 19.2433L24.3563 14.2371C22.6615 15.9553 21.6546 18.2629 21.6546 20.778V20.9313L41.4041 20.9297L41.4039 20.9312ZM33.4186 11.0605L33.4735 10.5575H29.5887L30.4777 18.8694H32.5829L33.4186 11.0605ZM41.5851 21.8621H21.4737C20.3072 21.8621 19.6891 23.2307 20.5349 24.0419C20.7758 24.2734 21.1082 24.4171 21.4737 24.4171H41.5868C42.7533 24.4171 43.3714 23.0486 42.5256 22.2374C42.283 22.0058 41.9506 21.8621 41.5851 21.8621Z" fill="black"/>
</svg>
