<svg width="60" height="55" viewBox="0 0 60 55" fill="none" xmlns="http://www.w3.org/2000/svg">
<g clip-path="url(#clip0_940_13403)">
<path d="M33.2276 19.4793L36.6652 22.9169L44.2163 22.9054C44.4302 22.9045 44.6422 22.946 44.84 23.0275C45.0378 23.1089 45.2175 23.2287 45.3688 23.38C45.52 23.5313 45.6399 23.711 45.7213 23.9088C45.8028 24.1066 45.8443 24.3186 45.8434 24.5325L45.8319 30.4565C45.8307 30.8846 45.66 31.2948 45.3573 31.5975C45.0546 31.9002 44.6444 32.0709 44.2163 32.0721L38.9569 32.0836L29.7901 22.9169L27.4984 25.2085C27.1945 25.5124 26.7824 25.6832 26.3526 25.6832C25.9228 25.6832 25.5106 25.5124 25.2067 25.2085C24.9028 24.9046 24.7321 24.4925 24.7321 24.0627C24.7321 23.6329 24.9028 23.2208 25.2067 22.9169L28.6443 19.4793C29.2521 18.8715 30.0764 18.5301 30.936 18.5301C31.7955 18.5301 32.6199 18.8715 33.2276 19.4793ZM20.6234 18.3335L16.04 22.9169L10.792 22.9169C10.3639 22.9181 9.95372 23.0888 9.65101 23.3915C9.34829 23.6942 9.17767 24.1044 9.17639 24.5325L9.16493 30.4565C9.16406 30.6704 9.20555 30.8824 9.287 31.0802C9.36846 31.278 9.48828 31.4577 9.63955 31.609C9.79081 31.7603 9.97053 31.8801 10.1683 31.9615C10.3661 32.043 10.5781 32.0845 10.792 32.0836L20.6234 32.0836L25.2067 36.667C25.5106 36.9709 25.9228 37.1416 26.3526 37.1416C26.7824 37.1416 27.1945 36.9709 27.4984 36.667L28.6443 35.5211L29.7901 36.667C30.094 36.9709 30.5062 37.1416 30.936 37.1416C31.3657 37.1416 31.7779 36.9709 32.0818 36.667L33.2276 35.5211L34.3735 36.667C34.6774 36.9709 35.0896 37.1416 35.5193 37.1416C35.9491 37.1416 36.3613 36.9709 36.6652 36.667L37.811 35.5211L29.7901 27.5002L28.6443 28.6461C28.0365 29.2539 27.2121 29.5953 26.3526 29.5953C25.493 29.5953 24.6687 29.2539 24.0609 28.6461L21.7692 26.3544C21.1614 25.7466 20.82 24.9222 20.82 24.0627C20.82 23.2031 21.1614 22.3788 21.7692 21.771L25.2067 18.3335L20.6234 18.3335Z" fill="black"/>
</g>
<defs>
<clipPath id="clip0_940_13403">
<rect width="38.8912" height="38.8912" fill="white" transform="translate(27.5) rotate(45)"/>
</clipPath>
</defs>
</svg>
