<svg width="56" height="42" viewBox="0 0 56 42" fill="none" xmlns="http://www.w3.org/2000/svg">
<path d="M33.5833 34.6895H3.33333C2.32081 34.6895 1.5 35.5103 1.5 36.5228V38.3561C1.5 39.3686 2.32081 40.1895 3.33333 40.1895H33.5833C34.5959 40.1895 35.4167 39.3686 35.4167 38.3561V36.5228C35.4167 35.5103 34.5959 34.6895 33.5833 34.6895Z" stroke="black" stroke-width="3" stroke-linecap="round" stroke-linejoin="round"/>
<path d="M6.08333 19.1025V34.7042M30.8333 19.1025V34.7042M23.0417 19.1025V34.7042M13.875 19.1025V34.7042M16.6983 6.77521L2.45333 14.5669C2.16483 14.7247 1.92409 14.9573 1.75637 15.2402C1.58864 15.5231 1.50009 15.8458 1.5 16.1747V18.0025C1.5 18.2943 1.61589 18.5741 1.82218 18.7804C2.02847 18.9867 2.30826 19.1025 2.6 19.1025H34.3167C34.6084 19.1025 34.8882 18.9867 35.0945 18.7804C35.3008 18.5741 35.4167 18.2943 35.4167 18.0025V16.1747C35.4166 15.8458 35.328 15.5231 35.1603 15.2402C34.9926 14.9573 34.7518 14.7247 34.4633 14.5669L20.2183 6.77521C19.6787 6.47995 19.0735 6.3252 18.4583 6.3252C17.8432 6.3252 17.238 6.47995 16.6983 6.77521Z" stroke="black" stroke-width="3" stroke-linecap="round" stroke-linejoin="round"/>
</svg>
