<svg width="17" height="17" viewBox="0 0 17 17" fill="none" xmlns="http://www.w3.org/2000/svg">
<path fill-rule="evenodd" clip-rule="evenodd" d="M16.9984 9.22615C16.8314 11.153 16.011 13.0338 14.538 14.5069C11.2138 17.831 5.81721 17.831 2.49309 14.5069C-0.83103 11.1827 -0.83103 5.78601 2.49309 2.46184C3.96684 0.988782 5.84693 0.168414 7.77446 0.00133564C7.92311 -0.011406 8.06469 0.0678751 8.1305 0.202373C8.19633 0.336159 8.17368 0.496844 8.07317 0.607275C5.96298 2.91701 6.02459 6.50666 8.25933 8.74137C10.494 10.9761 14.0836 11.0384 16.3933 8.92753C16.5037 8.82702 16.6644 8.80366 16.7982 8.8702C16.932 8.93603 17.0119 9.0775 16.9984 9.22615Z" fill="white"/>
</svg>
