<svg width="56" height="43" viewBox="0 0 56 43" fill="none" xmlns="http://www.w3.org/2000/svg">
<path d="M36.4161 11.492V8.64199L33.5661 8.32533C33.4078 8.32533 32.4578 8.16699 30.8745 8.16699C24.3828 8.16699 19.6328 10.067 16.9411 13.392C14.8828 12.1253 12.0328 11.3337 8.70781 11.3337C7.12448 11.3337 6.01615 11.492 6.01615 11.492L3.00781 11.967L3.16615 14.6587C3.32448 19.4087 5.69948 28.4337 13.9328 28.4337H14.2495V33.817C8.23281 34.6087 3.16615 36.667 3.16615 36.667V39.8337H34.8328V36.667C34.8328 36.667 29.7661 34.6087 23.7495 33.817V28.7503C33.7245 28.592 36.4161 17.3503 36.4161 11.492ZM18.9995 33.5003H17.4161V24.6337C17.4161 24.6337 17.0995 19.2503 12.6661 19.2503C12.6661 19.2503 15.0411 20.517 15.6745 25.1087C15.0411 25.267 14.4078 25.267 13.9328 25.267C6.64948 25.267 6.33281 14.6587 6.33281 14.6587C6.33281 14.6587 7.28281 14.5003 8.70781 14.5003C11.7161 14.5003 16.6245 15.1337 18.0495 19.4087C18.8411 12.2837 26.9161 11.3337 30.8745 11.3337C32.2995 11.3337 33.2495 11.492 33.2495 11.492C33.2495 11.492 33.2495 25.742 23.2745 25.742H22.1661C22.1661 22.5753 25.3328 17.8253 25.3328 17.8253C20.5828 19.4087 20.5828 25.5837 20.5828 25.5837V33.5003H18.9995Z" fill="black"/>
</svg>
