<svg width="17" height="17" viewBox="0 0 17 17" fill="none" xmlns="http://www.w3.org/2000/svg">
<path d="M8.12598 13.3423C10.7154 13.3423 12.8145 11.1466 12.8145 8.43817C12.8145 5.7297 10.7154 3.53406 8.12598 3.53406C5.5366 3.53406 3.4375 5.7297 3.4375 8.43817C3.4375 11.1466 5.5366 13.3423 8.12598 13.3423Z" fill="black"/>
<path d="M8.12666 2.16352C8.29523 2.16352 8.43203 2.02063 8.43203 1.8441V0.319417C8.43203 0.142886 8.29523 0 8.12666 0C7.9581 0 7.82129 0.142886 7.82129 0.319417V1.8441C7.82129 2.02063 7.9581 2.16352 8.12666 2.16352Z" fill="black"/>
<path d="M8.12666 14.8363C7.9581 14.8363 7.82129 14.9792 7.82129 15.1557V16.6806C7.82129 16.8571 7.9581 17 8.12666 17C8.29523 17 8.43203 16.8571 8.43203 16.6806V15.1557C8.43203 14.9792 8.29523 14.8363 8.12666 14.8363Z" fill="black"/>
<path d="M3.41122 4.01955C3.47087 4.08173 3.54905 4.11304 3.62722 4.11304C3.7054 4.11304 3.78357 4.08195 3.84322 4.01955C3.96252 3.89477 3.96252 3.69247 3.84322 3.56769L2.81229 2.48955C2.69299 2.36498 2.49979 2.36498 2.38049 2.48955C2.26119 2.61412 2.26119 2.81663 2.38049 2.94142L3.41122 4.01955Z" fill="black"/>
<path d="M12.8416 12.9804C12.7223 12.8556 12.5291 12.8556 12.4098 12.9804C12.2905 13.105 12.2905 13.3073 12.4098 13.4321L13.4405 14.5102C13.5002 14.5726 13.5783 14.6037 13.6565 14.6037C13.7347 14.6037 13.8129 14.5726 13.8725 14.5102C13.9918 14.3857 13.9918 14.1834 13.8725 14.0586L12.8416 12.9804Z" fill="black"/>
<path d="M1.76342 8.1803H0.305372C0.136807 8.1803 0 8.3234 0 8.49971C0 8.67625 0.136807 8.81913 0.305372 8.81913H1.76342C1.93199 8.81913 2.06879 8.67603 2.06879 8.49971C2.06879 8.3234 1.93219 8.1803 1.76342 8.1803Z" fill="black"/>
<path d="M15.9473 8.18042H14.4895C14.3209 8.18042 14.1841 8.32331 14.1841 8.49984C14.1841 8.67637 14.3209 8.81925 14.4895 8.81925H15.9473C16.1159 8.81925 16.2527 8.67637 16.2527 8.49984C16.2527 8.32331 16.1159 8.18042 15.9473 8.18042Z" fill="black"/>
<path d="M3.41143 12.9798L2.38049 14.0583C2.26119 14.1831 2.26119 14.3854 2.38049 14.51C2.44014 14.5724 2.51831 14.6035 2.59649 14.6035C2.67466 14.6035 2.75284 14.5724 2.81249 14.51L3.84343 13.4314C3.96272 13.3067 3.96272 13.1044 3.84343 12.9798C3.72392 12.8552 3.53072 12.8552 3.41143 12.9798Z" fill="black"/>
<path d="M13.4405 2.48934L12.4098 3.56748C12.2905 3.69226 12.2905 3.89456 12.4098 4.01913C12.4694 4.08153 12.5476 4.11262 12.6258 4.11262C12.704 4.11262 12.7821 4.08153 12.8418 4.01913L13.8725 2.941C13.9918 2.81621 13.9918 2.61391 13.8725 2.48934C13.753 2.36456 13.5598 2.36456 13.4405 2.48934Z" fill="black"/>
</svg>
